<svg xmlns="http://www.w3.org/2000/svg" width="1280" height="650" viewBox="0 0 1280 650">
  <g id="Group_78" data-name="Group 78" transform="translate(-5837 -2521.5)">
    <g id="Group_77" data-name="Group 77" transform="translate(5837 2521.5)">
      <rect id="Rectangle_117" data-name="Rectangle 117" width="1279.3" height="648.5" transform="translate(0.7 0.5)"/>
      <path id="Path_251" data-name="Path 251" d="M1532.6,4183.878s-83.7,63.455-157.7,89.322-102.6,93.4-102.6,93.4V4183.878Z" transform="translate(-1272.3 -4183.878)" fill="#b002fa"/>
      <path id="Path_252" data-name="Path 252" d="M1272.3,4183.878s83.7,63.455,157.7,89.322,102.6,93.4,102.6,93.4V4183.878Z" transform="translate(-253 -4183.878)" fill="#b002fa"/>
    </g>
    <path id="Path_253" data-name="Path 253" d="M1581.6,2238.4s-51.063-88.862,16.8-128.2c31.268-18.126,74.61-33.073,141.2,0,212,37.4,217.4-11.8,280-13.2s184.2-11,281.4-26.8,152,50.8,265.4,40,168.2-24,228-24,43.2,129.4,43.2,129.4Z" transform="translate(4275 881.5)" fill="rgba(207,94,255,0.43)"/>
    <rect id="Rectangle_118" data-name="Rectangle 118" width="1280" height="96" transform="translate(5837 3075.5)" fill="#b002fa"/>
  </g>
</svg>
