<svg xmlns="http://www.w3.org/2000/svg" width="1284.394" height="650" viewBox="0 0 1284.394 650">
  <g id="Group_71" data-name="Group 71" transform="translate(4 -1641)">
    <g id="Group_71-2" data-name="Group 71" transform="translate(-3.767 1641)">
      <rect id="Rectangle_117" data-name="Rectangle 117" width="1280" height="569" transform="translate(3.767)" fill="#fff"/>
      <path id="Path_251" data-name="Path 251" d="M1532.6,4183.878s-83.7,53.739-157.7,75.646-102.6,79.1-102.6,79.1V4183.878Z" transform="translate(-1271.233 -4182.608)" fill="#b002fa"/>
      <path id="Path_252" data-name="Path 252" d="M1272.3,4183.878s83.7,53.739,157.7,75.646,102.6,79.1,102.6,79.1V4183.878Z" transform="translate(-249.233 -4182.608)" fill="#b002fa"/>
      <path id="Path_253" data-name="Path 253" d="M1572.733,2238.365s-42.2-101.347,25.667-134.662c31.268-15.351,74.61-28.009,141.2,0,212,31.674,217.4-9.993,280-11.179s184.2-9.316,281.4-22.7,152,43.022,265.4,33.875,168.2-20.325,228-20.325,46.8,98.916,46.8,98.916Z" transform="translate(-1558.233 -1613.564)" fill="rgba(179,0,255,0.27)"/>
    </g>
    <rect id="Rectangle_118" data-name="Rectangle 118" width="1284" height="81" transform="translate(-4 2210)" fill="#b002fa"/>
  </g>
</svg>
