<svg xmlns="http://www.w3.org/2000/svg" width="1281.6" height="1301" viewBox="0 0 1281.6 1301">
  <g id="Group_73" data-name="Group 73" transform="translate(36 -927)">
    <g id="Group_72" data-name="Group 72" transform="translate(-36 51)">
      <g id="Rectangle_141" data-name="Rectangle 141" transform="translate(0 1213)" fill="#fff" stroke="#707070" stroke-width="1">
        <rect width="1280" height="964" stroke="none"/>
        <rect x="0.5" y="0.5" width="1279" height="963" fill="none"/>
      </g>
      <path id="Path_265" data-name="Path 265" d="M0,0H1280V524.763s-308,30.5-628,30.5-652-30.5-652-30.5Z" transform="translate(0 876)" fill="#b002fa"/>
      <path id="Path_267" data-name="Path 267" d="M-849.6,1917.693c-89.694-47.77-80.394-40.4-133-63.383-80.58-35.206-376.149,62.3-493.4,63.383-5.667.052-25.866-18.626-35.9-38.047,9.573-36.339,6.138-59.638,22-66.708,5.9-2.633,22.207.49,32.5,1.295,62.933,30.431,189.166,164.335,270.6,134.181,137.564-50.938,248.016-236.262,233.2-363.7-26.6-228.8,104,57.557,104,57.557Z" transform="translate(2130 -598.364)" fill="rgba(209,100,255,0.6)"/>
      <path id="Path_264" data-name="Path 264" d="M1272.3,4183.878s76.4,56.017,143.948,78.851,93.653,82.451,93.653,82.451v-161.3Z" transform="translate(-228.3 -3307.437)" fill="#fff"/>
      <path id="Path_268" data-name="Path 268" d="M-1382.6,1947.216c89.694-47.771,84.206-71.12,136.812-94.1,80.58-35.206,362.537,68.043,479.788,69.121,38.167.351-2.592-24.13-4.988-40.078-1.649-10.975,21.788-79.657,0-69.121-62.933,30.431-189.166,164.335-270.6,134.182-137.564-50.938-257.228-245.8-242.412-373.236,26.6-228.8-98.6,60.205-98.6,60.205Z" transform="translate(1383 -597.167)" fill="rgba(209,100,255,0.6)"/>
      <path id="Path_263" data-name="Path 263" d="M1502.3,4183.878s-73.957,56.323-139.343,79.283-90.657,82.9-90.657,82.9V4183.878Z" transform="translate(-1272 -3307.878)" fill="#fff"/>
    </g>
  </g>
</svg>
