<svg xmlns="http://www.w3.org/2000/svg" width="1280" height="1312" viewBox="0 0 1280 1312">
  <g id="Group_80" data-name="Group 80" transform="translate(2727 -3890.5)">
    <rect id="Rectangle_142" data-name="Rectangle 142" width="1280" height="777" transform="translate(-2727 4425.5)" fill="#fff"/>
    <g id="Group_80-2" data-name="Group 80" transform="translate(-2727 3890.5)">
      <path id="Path_265" data-name="Path 265" d="M0,0H1278.4V565.04s-307.615,32.842-627.215,32.842S0,565.04,0,565.04Z" transform="translate(0 0.475)" fill="#024bfa"/>
      <path id="Path_267" data-name="Path 267" d="M-848.4,1995.114c-89.344-52.718-83.866-78.485-136.266-103.849-80.266-38.852-374.68,68.757-491.474,69.947-5.645.058-25.766-20.555-35.76-41.988,9.536-40.1,6.114-65.815,21.914-73.617,5.881-2.906,22.12.541,32.373,1.429,62.688,33.582,188.428,181.354,269.544,148.078,137.027-56.213,269.56-267.549,254.8-408.188-26.5-252.493,84.867,70.142,84.867,70.142Z" transform="translate(2128.4 -1471.943)" fill="rgba(101,147,255,0.6)"/>
      <path id="Path_264" data-name="Path 264" d="M1272.3,4183.878s76.4,60.316,143.948,84.9,93.653,88.779,93.653,88.779V4183.878Z" transform="translate(-229.9 -4183.878)" fill="#fff"/>
      <path id="Path_268" data-name="Path 268" d="M-1381.2,1983.208c89.694-51.437,82.806-76.578,135.411-101.326,80.58-37.908,362.537,73.265,479.788,74.426,38.167.378-2.592-25.981-4.988-43.154-1.649-11.817,21.788-85.77,0-74.426-62.933,32.766-189.166,176.948-270.6,144.48-137.564-54.848-264.028-251.163-249.212-388.385,26.6-246.358-90.4,53.229-90.4,53.229Z" transform="translate(1383 -1472.3)" fill="rgba(101,147,255,0.6)"/>
      <path id="Path_263" data-name="Path 263" d="M1512.326,4183.878s-77.181,60.646-145.417,85.367-94.609,89.265-94.609,89.265V4183.878Z" transform="translate(-1272 -4183.403)" fill="#fff"/>
    </g>
  </g>
</svg>
