<svg xmlns="http://www.w3.org/2000/svg" width="1281.601" height="750" viewBox="0 0 1281.601 750">
  <g id="Group_71" data-name="Group 71" transform="translate(7166 -812.733)">
    <rect id="Rectangle_140" data-name="Rectangle 140" width="1280" height="749.78" transform="translate(-7166 812.733)" fill="#fff"/>
    <path id="Path_255" data-name="Path 255" d="M-69.985,596.514l-726.9,749.733H244.692V596.514Z" transform="translate(-6129.092 216.486)" fill="#b002fa"/>
    <path id="Path_256" data-name="Path 256" d="M30.606,39.311l241.719-4.9L241.341,0,0,5.32Z" transform="translate(-6733.399 1477.163) rotate(-48)" fill="#fff"/>
    <path id="Path_257" data-name="Path 257" d="M29.675,29.128H183.831L154.7,0H0Z" transform="translate(-6801.157 1492.485) rotate(-48)" fill="#fff"/>
    <path id="Path_260" data-name="Path 260" d="M20.011,0l131.78,5.3,17.966,24.729L0,31.33Z" transform="matrix(0.588, -0.809, 0.809, 0.588, -6064.812, 965.684)" fill="#fff"/>
    <path id="Path_261" data-name="Path 261" d="M10.478,0l122.8.735L154.7,30.219H0Z" transform="matrix(0.588, -0.809, 0.809, 0.588, -6008.936, 953.385)" fill="#fff"/>
  </g>
</svg>
