<svg xmlns="http://www.w3.org/2000/svg" width="1280" height="1950.105" viewBox="0 0 1280 1950.105">
  <g id="Group_73" data-name="Group 73" transform="translate(-4288 -2656)">
    <rect id="Rectangle_7" data-name="Rectangle 7" width="1280" height="657" transform="translate(4288 2656)" fill="#b002fa"/>
    <rect id="Rectangle_8" data-name="Rectangle 8" width="1277.6" height="735.818" transform="translate(4288 3312.872)" fill="#b002fa"/>
    <path id="Path_9" data-name="Path 9" d="M1457.576,1897.333S985.69,2160.545,858.153,2507.414c-32.9,89.492-76.033,207.169-148.412,294.415C500.159,3054.464,177.576,3243.2,177.576,3243.2v534.984h1280Z" transform="translate(4110.424 823.817)"/>
    <rect id="Rectangle_9" data-name="Rectangle 9" width="1265.6" height="575.573" transform="translate(4288 4030.532)"/>
    <path id="Path_68" data-name="Path 68" d="M1378.083,3146.915s-189.489,349.123-389.381,565.65-303.2,188.442-410.188,267.023c-234.317,172.1-411.436,277.9-411.436,277.9s161.664,1.762,532.024,0c332.446-1.581,681.376,0,681.376,0Z" transform="translate(4187.521 347.73)" fill="#b002fa"/>
  </g>
</svg>
