<svg xmlns="http://www.w3.org/2000/svg" width="1280.021" height="1950" viewBox="0 0 1280.021 1950">
  <g id="Group_73" data-name="Group 73" transform="translate(-4287.979 -2656)">
    <rect id="Rectangle_7" data-name="Rectangle 7" width="1280" height="653" transform="translate(4288 2656)" fill="#024bfa"/>
    <rect id="Rectangle_8" data-name="Rectangle 8" width="1277.6" height="731.903" transform="translate(4288 3309.485)" fill="#024bfa"/>
    <path id="Path_9" data-name="Path 9" d="M1457.576,1897.333s-471.886,261.84-599.423,606.9c-32.9,89.025-76.033,206.089-148.412,292.88-209.582,251.316-532.166,439.073-532.166,439.073v546.343l1280-14.149Z" transform="translate(4110.424 823.471)" fill="#fff"/>
    <path id="Path_270" data-name="Path 270" d="M0,0,1265.53,4.045l2.125,543.247L2.125,543.247Z" transform="matrix(1, -0.017, 0.017, 1, 4287.979, 4032.483)" fill="#fff"/>
    <path id="Path_68" data-name="Path 68" d="M1378.083,3146.915s-189.489,350.462-389.381,567.82S685.5,3903.9,578.515,3982.782C344.2,4155.547,167.079,4261.747,167.079,4261.747s161.664,1.769,532.024,0c332.446-1.587,681.376,0,681.376,0Z" transform="translate(4187.521 343.467)" fill="#024bfa"/>
  </g>
</svg>
