<svg xmlns="http://www.w3.org/2000/svg" width="1282.06" height="1954" viewBox="0 0 1282.06 1954">
  <g id="Group_59" data-name="Group 59" transform="translate(-4145 -1830)">
    <rect id="Rectangle_7" data-name="Rectangle 7" width="1280" height="800" transform="translate(4145 1830)" fill="#b002fa"/>
    <path id="Path_270" data-name="Path 270" d="M0,0H1280V896L0,1204.182Z" transform="translate(4145 2342.45)" fill="#b002fa"/>
    <path id="Path_9" data-name="Path 9" d="M1456.909,1954.667s-464.027,213.622-592.7,556.46c-33.2,88.453-76.71,204.762-149.732,290.995-211.448,249.7-536.9,436.246-536.9,436.246v528.768H1455.466Z" transform="translate(3967.424 12)" fill="#fff"/>
    <path id="Path_68" data-name="Path 68" d="M1382.539,3405.4s-69.894,166.64-294.06,430.3-340.021,229.464-460,325.152c-262.772,209.571-480.485,338.4-480.485,338.4s200.382,2.146,615.717,0c372.817-1.926,618.828,0,618.828,0Z" transform="translate(4044.521 -716.204)" fill="#b002fa"/>
  </g>
</svg>
