<svg xmlns="http://www.w3.org/2000/svg" width="497.49" height="421.974" viewBox="0 0 497.49 421.974">
  <g id="Group_22" data-name="Group 22" transform="translate(-0.003 -0.02)">
    <path id="Path_95" data-name="Path 95" d="M616.767,233.676c-24.879,31.816-71.824,39.1-110.667,28.02a180.128,180.128,0,0,1-36.562-15.221c-6.733-3.656-13.3-7.667-19.741-11.94-1.584-1.047-3.168-2.11-4.735-3.194q-1.6-1.1-3.195-2.217c-13.293-9.352-26.065-19.612-38.623-29.813C371.9,173.846,339.688,147.6,301.173,135.448c-7.935-2.5-18.2-3.672-23.107,3.049-4.257,5.836-1.659,14.1,1.944,20.359,13.363,23.188,37.619,37.829,61.9,49.087s49.994,20.38,71.1,36.841,37.217,42.623,32.9,69.032c-3.721,22.758-22.3,41.249-43.906,49.307s-45.7,6.931-68.157,1.7-43.777-14.367-65.451-22.238c-13.068-4.751-30.151-8.037-38.822,2.835-7.323,9.186-3.114,23.676,5.8,31.322s20.987,10.206,32.5,12.5q53.634,10.711,107.269,21.416c10.968,2.185,22.194,4.472,31.751,10.292s17.266,15.972,16.992,27.155c-.274,11.022-8.343,20.761-18.233,25.641s-21.3,5.626-32.309,5.1c-41.265-1.976-159.566-67.534-187.94-75.915-18.232-5.38-38.167-13.282-45.855-30.667-9.573-21.642,6.18-47.825,27.682-57.709s46.419-7.7,69.848-4.37,47.632,7.565,70.439,1.24,43.7-26.941,41.453-50.5c-1.96-20.5-20.423-35.944-39.853-42.752-15.21-5.331-31.391-6.781-47.369-9.181-4.435-.66-8.853-1.4-13.229-2.314a164.867,164.867,0,0,1-32.615-10.469,168,168,0,0,1-31.161-17.883,163.888,163.888,0,0,1-21.647-18.8q-1.522-1.578-3.012-3.227c-.945-1.052-1.879-2.126-2.792-3.221-11.876-14.19-20.649-31.665-18.018-49.672C141.9,85.459,155.9,70.507,172.563,63.324A82.138,82.138,0,0,1,203.1,57.048,125.52,125.52,0,0,1,226.068,58.7c35.117,5.616,67.3,22.678,97.691,41.152s60,38.752,93.036,51.922,70.637,18.753,104.149,6.84,61.043-44.4,59.406-79.925c22.227,19.14,41.114,43.2,49.479,71.308S634.833,210.568,616.767,233.676Z" transform="translate(-136.684 -57.003)" fill="#3f3d56"/>
    <circle id="Ellipse_26" data-name="Ellipse 26" cx="3.907" cy="3.907" r="3.907" transform="translate(316.027 132.144)" fill="#024bfa"/>
    <path id="Path_115" data-name="Path 115" d="M6.041,0A6.041,6.041,0,1,1,0,6.041,6.041,6.041,0,0,1,6.041,0Z" transform="translate(451.872 78.47)" fill="#024bfa"/>
    <circle id="Ellipse_28" data-name="Ellipse 28" cx="2.232" cy="2.232" r="2.232" transform="translate(59.463 272.334)" fill="#024bfa"/>
    <path id="Path_96" data-name="Path 96" d="M330.779,308.867a23.853,23.853,0,0,1-.7,5.745c-4.435-.66-8.853-1.4-13.229-2.314a164.867,164.867,0,0,1-32.615-10.469,23.8,23.8,0,0,1,46.542,7.039Z" transform="translate(-205.017 -162.614)" fill="#024bfa"/>
    <circle id="Ellipse_29" data-name="Ellipse 29" cx="2.283" cy="2.283" r="2.283" transform="translate(416.974 121.42)" fill="#f0f0f0"/>
    <circle id="Ellipse_30" data-name="Ellipse 30" cx="2.283" cy="2.283" r="2.283" transform="translate(208.128 372.68)" fill="#f0f0f0"/>
    <circle id="Ellipse_31" data-name="Ellipse 31" cx="2.283" cy="2.283" r="2.283" transform="translate(240.878 404.356)" fill="#f0f0f0"/>
    <circle id="Ellipse_32" data-name="Ellipse 32" cx="2.283" cy="2.283" r="2.283" transform="translate(38.474 314.16)" fill="#f0f0f0"/>
    <circle id="Ellipse_33" data-name="Ellipse 33" cx="2.283" cy="2.283" r="2.283" transform="translate(150.682 271.747)" fill="#f0f0f0"/>
    <circle id="Ellipse_34" data-name="Ellipse 34" cx="2.283" cy="2.283" r="2.283" transform="translate(139.407 45.183)" fill="#f0f0f0"/>
    <circle id="Ellipse_35" data-name="Ellipse 35" cx="2.283" cy="2.283" r="2.283" transform="translate(277.386 223.964)" fill="#f0f0f0"/>
    <circle id="Ellipse_36" data-name="Ellipse 36" cx="2.283" cy="2.283" r="2.283" transform="translate(294.566 263.693)" fill="#f0f0f0"/>
    <path id="Path_97" data-name="Path 97" d="M291.527,171.035q4.872-1.47,9.321-3.187c18.233-7.042,28.69-16.6,28.69-26.211s-10.457-19.168-28.69-26.211q-2.7-1.045-5.576-2a73.2,73.2,0,0,1-3.745,57.607Z" transform="translate(-208.393 -83.126)" fill="none"/>
    <path id="Path_98" data-name="Path 98" d="M229.59,111.777a72.715,72.715,0,0,1-7.946,33.158q-1.039,2.029-2.2,3.989a73.247,73.247,0,0,1-32.873,29.432,163.893,163.893,0,0,1-21.647-18.8q-1.522-1.579-3.012-3.227c-.945-1.052-1.879-2.126-2.792-3.221-11.876-14.19-20.649-31.665-18.018-49.672,2.625-17.959,16.622-32.911,33.287-40.094a82.137,82.137,0,0,1,30.538-6.276,73.084,73.084,0,0,1,18.968,26.393c.537,1.272,1.031,2.561,1.5,3.866a72.885,72.885,0,0,1,4.2,24.45Z" transform="translate(-138.511 -57.025)" fill="#024bfa"/>
    <path id="Path_99" data-name="Path 99" d="M278.824,138.3c0,11.183-10.92,21.556-30.752,29.217-3.968,1.535-8.214,2.926-12.681,4.172-16.719,4.66-36.615,7.243-57.532,7.409-.945-1.052-1.879-2.126-2.792-3.221.225.005.451.005.676.005,22.715,0,44.266-2.878,61.849-8.182,3.248-.982,6.362-2.046,9.32-3.189,18.232-7.038,28.691-16.595,28.691-26.21s-10.458-19.167-28.691-26.21q-2.706-1.047-5.573-2c-.467-1.3-.961-2.593-1.5-3.866q4.284,1.337,8.23,2.856C267.9,116.746,278.824,127.124,278.824,138.3Z" transform="translate(-154.458 -79.792)" fill="#e4e4e4"/>
    <circle id="Ellipse_37" data-name="Ellipse 37" cx="2.283" cy="2.283" r="2.283" transform="translate(22.367 14.044)" fill="#f0f0f0"/>
    <circle id="Ellipse_38" data-name="Ellipse 38" cx="2.283" cy="2.283" r="2.283" transform="translate(70.15 28.54)" fill="#f0f0f0"/>
    <circle id="Ellipse_39" data-name="Ellipse 39" cx="22.199" cy="22.199" r="22.199" transform="translate(25.537 31.709)" fill="#f0f0f0"/>
    <path id="Path_100" data-name="Path 100" d="M860.389,376.239c-4.982,1.471-15.967,2.556-28.047,3.221s-25.319.95-38.4,1.229q-34.339.741-68.672,1.487-4.719.1-9.471.193c-1.584-1.047-3.167-2.11-4.735-3.194,2.808.016,5.616,0,8.4-.054,11.9-.236,21.98-1.165,33.458-1.605,17.663-.682,36.733-.145,55.143.129S847.456,377.823,860.389,376.239Z" transform="translate(-402.69 -204.839)" fill="#f0f0f0" opacity="0.3"/>
    <path id="Path_101" data-name="Path 101" d="M271.819,639.03l-72.973-60.791,70.892,63.226a1.692,1.692,0,1,0,2.081-2.435Z" transform="translate(-165.471 -298.389)" fill="#f0f0f0" opacity="0.3"/>
    <circle id="Ellipse_40" data-name="Ellipse 40" cx="2.283" cy="2.283" r="2.283" transform="translate(48.674 105.851)" fill="#f0f0f0"/>
    <path id="Path_102" data-name="Path 102" d="M452.016,662.657h9.442l4.492-36.42H452.014Z" transform="translate(-209.335 -290.013)" fill="#ffb6b6"/>
    <path id="Path_103" data-name="Path 103" d="M584.215,741.695h2.658l10.376-4.22,5.561,4.219h0a11.851,11.851,0,0,1,11.85,11.849v.386H584.216Z" transform="translate(-343.943 -372.134)" fill="#2f2e41"/>
    <path id="Path_104" data-name="Path 104" d="M308.288,662.657h-9.442l-4.492-36.42H308.29Z" transform="translate(-136.32 -290.013)" fill="#ffb6b6"/>
    <path id="Path_105" data-name="Path 105" d="M435.214,753.93H404.768v-.385a11.851,11.851,0,0,1,11.849-11.85h0l5.561-4.219,10.376,4.22h2.658Z" transform="translate(-260.838 -372.134)" fill="#2f2e41"/>
    <path id="Path_106" data-name="Path 106" d="M489.18,231.191l-9.561,7.28-25.4,6.726s9.1,63.867,4.805,68.162-.421,4.41-1.284,9.99-4.3,20.311-4.3,20.311h75.8s.611-9.155-3.126-11.138,3.445-11.236.391-12.784,1.241-14.969,1.241-14.969l9.308-43.943L512.3,241.455l-3.765-9.072Z" transform="translate(-283.379 -137.664)" fill="#024bfa"/>
    <circle id="Ellipse_41" data-name="Ellipse 41" cx="3.308" cy="3.308" r="3.308" transform="translate(214.423 143.982)" fill="#f2f2f2"/>
    <path id="Path_107" data-name="Path 107" d="M440.888,440.678l-3.126,80.49s-13.5,59.448-11.153,61.011,3.337,10.882,3.337,10.882l13.285,1.563s0-6.252,3.126-8.6S478.4,473.5,478.4,473.5l28.207,106.533s.706,6,3.051,6,3.126,8.6,3.126,8.6h13.285v-8.6a5.9,5.9,0,0,0,3.625-8.144c-2.344-6.252-13-137.206-13-137.206Z" transform="translate(-270.826 -234.681)" fill="#2f2e41"/>
    <circle id="Ellipse_42" data-name="Ellipse 42" cx="16.02" cy="16.02" r="16.02" transform="translate(199.709 56.691)" fill="#ffb6b6"/>
    <path id="Path_108" data-name="Path 108" d="M452.85,262l3.126,2.345,1.563-10.941Z" transform="translate(-209.722 -117.347)" opacity="0.1"/>
    <path id="Path_109" data-name="Path 109" d="M442.857,257.141s-3.907-.781-6.252,6.252-10.94,33.6-10.94,38.291S479.2,327.06,479.2,327.06l-5.57-19.54-24.519-12.869Z" transform="translate(-270.515 -149.67)" fill="#024bfa"/>
    <circle id="Ellipse_43" data-name="Ellipse 43" cx="9.127" cy="9.127" r="9.127" transform="translate(202.038 156.24)" fill="#ffb6b6"/>
    <path id="Path_110" data-name="Path 110" d="M331.316,252l.715,9.679,22.673,11.9L334.537,260.05Z" transform="translate(-153.437 -116.696)" opacity="0.1"/>
    <path id="Path_111" data-name="Path 111" d="M546.5,300.6H546.2v-8.057a4.664,4.664,0,0,0-4.664-4.664H524.469a4.664,4.664,0,0,0-4.664,4.664v44.2a4.664,4.664,0,0,0,4.664,4.664H541.54a4.664,4.664,0,0,0,4.664-4.664V306.333h.294Z" transform="translate(-314.114 -163.916)" fill="#f0f0f0"/>
    <path id="Path_112" data-name="Path 112" d="M587.613,286.39s2.344,1.563,3.907,8.6,11.722,33.6,7.815,39.854-5.061,12.924-18.345,3.547l-18.383-16.831,13.285-12.5,5.47,3.907Z" transform="translate(-333.935 -163.228)" fill="#024bfa"/>
    <circle id="Ellipse_44" data-name="Ellipse 44" cx="3.907" cy="3.907" r="3.907" transform="translate(215.192 135.847)" fill="#024bfa"/>
    <circle id="Ellipse_45" data-name="Ellipse 45" cx="9.127" cy="9.127" r="9.127" transform="translate(221.284 139.188)" fill="#ffb6b6"/>
    <path id="Path_113" data-name="Path 113" d="M329.886,306.41l26.2,11.59-26.929-5.263Z" transform="translate(-152.438 -141.896)" opacity="0.1"/>
    <path id="Path_114" data-name="Path 114" d="M505.6,174.277l-2.2-8.371a21.631,21.631,0,0,1-1.024-6.667,7.316,7.316,0,0,1,2.985-5.8c1.9-1.221,4.8-.933,6.021.966.232-3.032,2.991-5.364,5.917-6.191s6.034-.5,9.072-.36,6.244.042,8.866-1.5a2.745,2.745,0,0,1-1.229,3.243,2.664,2.664,0,0,0,3.219-1.7,6.915,6.915,0,0,1-1.815,4.749,5.087,5.087,0,0,1,6.575,1.862c1.338,2.32.588,5.233-.195,7.794l-4.018,13.144a45.045,45.045,0,0,1-1.05-6.171,11.4,11.4,0,0,0-2.268-5.754,5.169,5.169,0,0,0-5.611-1.715,18.2,18.2,0,0,0-2.894,1.979,10.535,10.535,0,0,1-6.96,1.239c-2.39-.268-4.719-.949-7.108-1.221a4.388,4.388,0,0,0-5.765,3.807,23.348,23.348,0,0,0-.622,6.733" transform="translate(-306.034 -98.374)" fill="#2f2e41"/>
  </g>
</svg>
