<svg xmlns="http://www.w3.org/2000/svg" width="73.737" height="145.17" viewBox="0 0 73.737 145.17">
  <path id="Path_254" data-name="Path 254" d="M808.161,688.965c-1.248.051-2.392-1.917-2.863-3.226a3.678,3.678,0,0,1,.757-3.762l.212-.915a8.108,8.108,0,0,0-7.312-5.809,8.012,8.012,0,0,0-7.5,5.492c-3.6,9.3-8.247,18.915-6.065,29.224-14.685-36.1-9.212-80.758,13.2-111.256a27.353,27.353,0,0,0,12.532-18.336c-3.04,1.129-6.794-1.7-4.486-5.287,1-1.37,2.008-2.728,3.007-4.1-11.393-13.994-25.29,7.657-12.779,26.515a110.3,110.3,0,0,0-10.87,18.842,50.959,50.959,0,0,0-2.217-21.1c-2.239-6.28-6.489-11.594-10.226-17.042-4.543-6.638-14.033-3.7-14.722,4.654,4.231,1.624,4.724,8.567-.139,9.464,1.141,15.568,10,29.959,22.312,36.913a121.522,121.522,0,0,0-5.613,45.225c-2.032-17.955-19.006-22.49-30.836-29.745a4.187,4.187,0,0,0-5.063-.009,5.54,5.54,0,0,0-2.045,5.241,25.931,25.931,0,0,1,4.665,2.85,4.89,4.89,0,0,1,1.621,4.943,4.218,4.218,0,0,1-3.569,3.388c5.852,16.848,21.251,28.286,37.166,28.394a121.882,121.882,0,0,0,6.428,21.912l23.619.254c.087-.3.166-.6.245-.9a23.788,23.788,0,0,1-6.532-.511c5.849-7.687,10.356-10.461,7.08-21.315Z" transform="translate(-737.378 -566.52)"/>
</svg>
