<svg xmlns="http://www.w3.org/2000/svg" width="627.4" height="456.311" viewBox="0 0 627.4 456.311">
  <g id="Group_24" data-name="Group 24" transform="translate(0 0)">
    <circle id="Ellipse_57" data-name="Ellipse 57" cx="21.291" cy="21.291" r="21.291" transform="translate(344.168 37.861)" fill="#f2f2f2"/>
    <path id="Path_118" data-name="Path 118" d="M745.976,566.924c31.646-24.1,46.761-64.609,37.3-103.247q-.353-1.44-.745-2.874c-6.273-22.936-21.794-44.734-44.414-52.062-18.993-6.153-39.725-1.422-59.54-3.868-38.9-4.8-69.054-36.276-90.273-69.229s-37.527-69.838-65.722-97.061c-46.475-44.873-122.289-54.535-179.912-25.325s-94.328,94.012-92.763,158.6,39.906,126.332,95.587,159.092c20.455,12.035,44.113,20.561,67.657,17.577,20.429-2.589,38.992-13.566,59.324-16.824,31.968-5.124,63.733,9.33,91.383,26.173s54.358,36.807,85.778,44.616C680.144,610.069,717.941,588.276,745.976,566.924Z" transform="translate(-215.357 -170.502)" fill="#f2f2f2"/>
    <path id="Path_119" data-name="Path 119" d="M727,207.982c-.694-.462-1.4-.9-2.089-1.348a303.2,303.2,0,0,0-64.038-31.042l-5.215,71.94H622.6V165.091c-2.081-.431-4.178-.837-6.275-1.22v83.662H577.038a81.549,81.549,0,0,1-81.549-81.549h0c-2.105.455-4.194.941-6.283,1.459v80.09h-32l-4.968-68.6a303.692,303.692,0,0,0-65.338,34.71c-.351.239-.7.486-1.045.726-1.762,1.236-3.5,2.5-5.231,3.772V492.594h94.307l-1.666-23.084L464.1,342.765H648.763l-9.17,126.745-1.667,23.084h93.262V210.757Q729.108,209.346,727,207.982Zm-237.8,113.851H462.581l-4.92-68.017h31.545Zm127.119,0H571.608v-1.348a4.928,4.928,0,0,0-4.936-4.928h-19.44a4.926,4.926,0,0,0-4.928,4.928v1.348H495.49V253.816H616.326Zm6.275,0V253.816h32.605l-4.92,68.017Z" transform="translate(-241.852 -163.871)" fill="#3f3d56"/>
    <path id="Path_120" data-name="Path 120" d="M206.59,598.162a230.467,230.467,0,0,0,22.422,23.084l582.555.8a230.413,230.413,0,0,0,22.422-23.084Z" transform="translate(-206.59 -251.864)" fill="#3f3d56"/>
    <path id="Path_121" data-name="Path 121" d="M702.02,504.628v68.339a3.287,3.287,0,0,0,3.285,3.285H806.576a3.287,3.287,0,0,0,3.285-3.285V504.628a3.289,3.289,0,0,0-3.285-3.281H705.3a3.288,3.288,0,0,0-3.284,3.281Z" transform="translate(-306.971 -232.248)" fill="#3f3d56"/>
    <path id="Path_122" data-name="Path 122" d="M705,506.082v66.646a1.758,1.758,0,0,0,1.755,1.755h99.582a1.758,1.758,0,0,0,1.755-1.755V506.082a1.759,1.759,0,0,0-1.755-1.759H706.755A1.759,1.759,0,0,0,705,506.082Z" transform="translate(-307.574 -232.851)" fill="#b002fa"/>
    <path id="Path_123" data-name="Path 123" d="M699.25,605.024a1.97,1.97,0,0,0,1.55.742H809.237a2,2,0,0,0,1.95-2.4l-1.683-8a2,2,0,0,0-1.242-1.45,1.932,1.932,0,0,0-.708-.134H702.476a1.934,1.934,0,0,0-.708.134,2,2,0,0,0-1.242,1.45l-1.683,8A1.994,1.994,0,0,0,699.25,605.024Z" transform="translate(-306.318 -250.977)" fill="#2f2e41"/>
    <rect id="Rectangle_21" data-name="Rectangle 21" width="3.34" height="2.004" rx="0.488" transform="translate(500.466 346.25) rotate(180)" fill="#3f3d56"/>
    <rect id="Rectangle_22" data-name="Rectangle 22" width="3.34" height="2.004" rx="0.488" transform="translate(493.786 346.25) rotate(180)" fill="#3f3d56"/>
    <rect id="Rectangle_23" data-name="Rectangle 23" width="3.34" height="2.004" rx="0.488" transform="translate(487.106 346.25) rotate(180)" fill="#3f3d56"/>
    <rect id="Rectangle_24" data-name="Rectangle 24" width="3.34" height="2.004" rx="0.488" transform="translate(480.427 346.25) rotate(180)" fill="#3f3d56"/>
    <rect id="Rectangle_25" data-name="Rectangle 25" width="3.34" height="2.004" rx="0.488" transform="translate(473.747 346.25) rotate(180)" fill="#3f3d56"/>
    <rect id="Rectangle_26" data-name="Rectangle 26" width="3.34" height="2.004" rx="0.488" transform="translate(467.067 346.25) rotate(180)" fill="#3f3d56"/>
    <rect id="Rectangle_27" data-name="Rectangle 27" width="3.34" height="2.004" rx="0.488" transform="translate(460.387 346.25) rotate(180)" fill="#3f3d56"/>
    <rect id="Rectangle_28" data-name="Rectangle 28" width="3.34" height="2.004" rx="0.488" transform="translate(453.708 346.25) rotate(180)" fill="#3f3d56"/>
    <rect id="Rectangle_29" data-name="Rectangle 29" width="3.34" height="2.004" rx="0.488" transform="translate(447.028 346.25) rotate(180)" fill="#3f3d56"/>
    <rect id="Rectangle_30" data-name="Rectangle 30" width="3.34" height="2.004" rx="0.488" transform="translate(440.348 346.25) rotate(180)" fill="#3f3d56"/>
    <rect id="Rectangle_31" data-name="Rectangle 31" width="3.34" height="2.004" rx="0.488" transform="translate(433.669 346.25) rotate(180)" fill="#3f3d56"/>
    <rect id="Rectangle_32" data-name="Rectangle 32" width="3.34" height="2.004" rx="0.488" transform="translate(426.989 346.25) rotate(180)" fill="#3f3d56"/>
    <rect id="Rectangle_33" data-name="Rectangle 33" width="3.34" height="2.004" rx="0.488" transform="translate(420.309 346.25) rotate(180)" fill="#3f3d56"/>
    <rect id="Rectangle_34" data-name="Rectangle 34" width="3.34" height="2.004" rx="0.488" transform="translate(413.63 346.25) rotate(180)" fill="#3f3d56"/>
    <rect id="Rectangle_35" data-name="Rectangle 35" width="3.34" height="2.004" rx="0.488" transform="translate(406.95 346.25) rotate(180)" fill="#3f3d56"/>
    <rect id="Rectangle_36" data-name="Rectangle 36" width="3.34" height="2.004" rx="0.488" transform="translate(400.27 346.25) rotate(180)" fill="#3f3d56"/>
    <rect id="Rectangle_37" data-name="Rectangle 37" width="3.34" height="2.004" rx="0.488" transform="translate(500.544 349.589) rotate(180)" fill="#3f3d56"/>
    <rect id="Rectangle_38" data-name="Rectangle 38" width="3.34" height="2.004" rx="0.488" transform="translate(493.865 349.589) rotate(180)" fill="#3f3d56"/>
    <rect id="Rectangle_39" data-name="Rectangle 39" width="3.34" height="2.004" rx="0.488" transform="translate(487.185 349.589) rotate(180)" fill="#3f3d56"/>
    <rect id="Rectangle_40" data-name="Rectangle 40" width="3.34" height="2.004" rx="0.488" transform="translate(480.505 349.589) rotate(180)" fill="#3f3d56"/>
    <rect id="Rectangle_41" data-name="Rectangle 41" width="3.34" height="2.004" rx="0.488" transform="translate(473.826 349.589) rotate(180)" fill="#3f3d56"/>
    <rect id="Rectangle_42" data-name="Rectangle 42" width="3.34" height="2.004" rx="0.488" transform="translate(467.146 349.589) rotate(180)" fill="#3f3d56"/>
    <rect id="Rectangle_43" data-name="Rectangle 43" width="3.34" height="2.004" rx="0.488" transform="translate(460.466 349.589) rotate(180)" fill="#3f3d56"/>
    <rect id="Rectangle_44" data-name="Rectangle 44" width="3.34" height="2.004" rx="0.488" transform="translate(453.787 349.589) rotate(180)" fill="#3f3d56"/>
    <rect id="Rectangle_45" data-name="Rectangle 45" width="3.34" height="2.004" rx="0.488" transform="translate(447.107 349.589) rotate(180)" fill="#3f3d56"/>
    <rect id="Rectangle_46" data-name="Rectangle 46" width="3.34" height="2.004" rx="0.488" transform="translate(440.427 349.589) rotate(180)" fill="#3f3d56"/>
    <rect id="Rectangle_47" data-name="Rectangle 47" width="3.34" height="2.004" rx="0.488" transform="translate(433.748 349.589) rotate(180)" fill="#3f3d56"/>
    <rect id="Rectangle_48" data-name="Rectangle 48" width="3.34" height="2.004" rx="0.488" transform="translate(427.068 349.589) rotate(180)" fill="#3f3d56"/>
    <rect id="Rectangle_49" data-name="Rectangle 49" width="3.34" height="2.004" rx="0.488" transform="translate(420.388 349.589) rotate(180)" fill="#3f3d56"/>
    <rect id="Rectangle_50" data-name="Rectangle 50" width="3.34" height="2.004" rx="0.488" transform="translate(413.709 349.589) rotate(180)" fill="#3f3d56"/>
    <rect id="Rectangle_51" data-name="Rectangle 51" width="3.34" height="2.004" rx="0.488" transform="translate(407.029 349.589) rotate(180)" fill="#3f3d56"/>
    <rect id="Rectangle_52" data-name="Rectangle 52" width="3.34" height="2.004" rx="0.488" transform="translate(400.349 349.589) rotate(180)" fill="#3f3d56"/>
    <rect id="Rectangle_53" data-name="Rectangle 53" width="26.719" height="2.004" rx="0.488" transform="translate(468.482 353.597) rotate(180)" fill="#3f3d56"/>
    <rect id="Rectangle_54" data-name="Rectangle 54" width="4.757" height="2.49" rx="1.245" transform="translate(411.157 286.052)" fill="#fff"/>
    <rect id="Rectangle_55" data-name="Rectangle 55" width="4.757" height="2.49" rx="1.245" transform="translate(437.091 286.052)" fill="#fff"/>
    <rect id="Rectangle_56" data-name="Rectangle 56" width="4.757" height="2.49" rx="1.245" transform="translate(444.439 286.052)" fill="#fff"/>
    <rect id="Rectangle_57" data-name="Rectangle 57" width="16.583" height="2.49" rx="1.245" transform="translate(418.211 285.845)" fill="#fff"/>
    <rect id="Rectangle_58" data-name="Rectangle 58" width="16.583" height="2.49" rx="1.245" transform="translate(452.789 285.845)" fill="#fff"/>
    <rect id="Rectangle_59" data-name="Rectangle 59" width="4.757" height="2.49" rx="1.245" transform="translate(418.073 291.671)" fill="#fff"/>
    <rect id="Rectangle_60" data-name="Rectangle 60" width="4.757" height="2.49" rx="1.245" transform="translate(444.007 291.671)" fill="#fff"/>
    <rect id="Rectangle_61" data-name="Rectangle 61" width="4.757" height="2.49" rx="1.245" transform="translate(451.354 291.671)" fill="#fff"/>
    <rect id="Rectangle_62" data-name="Rectangle 62" width="16.583" height="2.49" rx="1.245" transform="translate(425.127 291.463)" fill="#fff"/>
    <rect id="Rectangle_63" data-name="Rectangle 63" width="16.583" height="2.49" rx="1.245" transform="translate(459.705 291.463)" fill="#fff"/>
    <rect id="Rectangle_64" data-name="Rectangle 64" width="4.757" height="2.49" rx="1.245" transform="translate(424.989 297.29)" fill="#fff"/>
    <rect id="Rectangle_65" data-name="Rectangle 65" width="4.757" height="2.49" rx="1.245" transform="translate(450.922 297.29)" fill="#fff"/>
    <rect id="Rectangle_66" data-name="Rectangle 66" width="4.757" height="2.49" rx="1.245" transform="translate(458.27 297.29)" fill="#fff"/>
    <rect id="Rectangle_67" data-name="Rectangle 67" width="16.583" height="2.49" rx="1.245" transform="translate(432.043 297.082)" fill="#fff"/>
    <rect id="Rectangle_68" data-name="Rectangle 68" width="16.583" height="2.49" rx="1.245" transform="translate(466.62 297.082)" fill="#fff"/>
    <rect id="Rectangle_69" data-name="Rectangle 69" width="4.757" height="2.49" rx="1.245" transform="translate(431.904 302.909)" fill="#fff"/>
    <rect id="Rectangle_70" data-name="Rectangle 70" width="4.757" height="2.49" rx="1.245" transform="translate(457.837 302.909)" fill="#fff"/>
    <rect id="Rectangle_71" data-name="Rectangle 71" width="4.757" height="2.49" rx="1.245" transform="translate(465.185 302.909)" fill="#fff"/>
    <rect id="Rectangle_72" data-name="Rectangle 72" width="16.583" height="2.49" rx="1.245" transform="translate(438.958 302.702)" fill="#fff"/>
    <rect id="Rectangle_73" data-name="Rectangle 73" width="4.757" height="2.49" rx="1.245" transform="translate(437.091 325.253)" fill="#fff"/>
    <rect id="Rectangle_74" data-name="Rectangle 74" width="4.757" height="2.49" rx="1.245" transform="translate(444.439 325.253)" fill="#fff"/>
    <rect id="Rectangle_75" data-name="Rectangle 75" width="16.583" height="2.49" rx="1.245" transform="translate(452.789 325.46)" fill="#fff"/>
    <rect id="Rectangle_76" data-name="Rectangle 76" width="4.757" height="2.49" rx="1.245" transform="translate(411.157 325.253)" fill="#fff"/>
    <rect id="Rectangle_77" data-name="Rectangle 77" width="16.583" height="2.49" rx="1.245" transform="translate(418.211 325.46)" fill="#fff"/>
    <rect id="Rectangle_78" data-name="Rectangle 78" width="4.757" height="2.49" rx="1.245" transform="translate(418.073 319.633)" fill="#fff"/>
    <rect id="Rectangle_79" data-name="Rectangle 79" width="4.757" height="2.49" rx="1.245" transform="translate(444.007 319.633)" fill="#fff"/>
    <rect id="Rectangle_80" data-name="Rectangle 80" width="4.757" height="2.49" rx="1.245" transform="translate(451.354 319.633)" fill="#fff"/>
    <rect id="Rectangle_81" data-name="Rectangle 81" width="16.583" height="2.49" rx="1.245" transform="translate(425.127 319.841)" fill="#fff"/>
    <rect id="Rectangle_82" data-name="Rectangle 82" width="4.757" height="2.49" rx="1.245" transform="translate(424.989 314.014)" fill="#fff"/>
    <rect id="Rectangle_83" data-name="Rectangle 83" width="4.757" height="2.49" rx="1.245" transform="translate(450.922 314.014)" fill="#fff"/>
    <rect id="Rectangle_84" data-name="Rectangle 84" width="4.757" height="2.49" rx="1.245" transform="translate(458.27 314.014)" fill="#fff"/>
    <rect id="Rectangle_85" data-name="Rectangle 85" width="16.583" height="2.49" rx="1.245" transform="translate(432.043 314.221)" fill="#fff"/>
    <rect id="Rectangle_86" data-name="Rectangle 86" width="4.757" height="2.49" rx="1.245" transform="translate(431.904 308.396)" fill="#fff"/>
    <rect id="Rectangle_87" data-name="Rectangle 87" width="4.757" height="2.49" rx="1.245" transform="translate(457.837 308.396)" fill="#fff"/>
    <rect id="Rectangle_88" data-name="Rectangle 88" width="4.757" height="2.49" rx="1.245" transform="translate(465.185 308.396)" fill="#fff"/>
    <rect id="Rectangle_89" data-name="Rectangle 89" width="16.583" height="2.49" rx="1.245" transform="translate(438.958 308.603)" fill="#fff"/>
    <path id="Path_124" data-name="Path 124" d="M708.8,638.146,698.157,621.32l33.412-26.635,13.791-15.279a15.279,15.279,0,0,1,25.85,5.445h0a15.279,15.279,0,0,1-9.226,19.13l-21.808,8.034Z" transform="translate(-306.188 -247.042)" fill="#ffb6b6"/>
    <path id="Path_125" data-name="Path 125" d="M398.28,500.651v81.78h57.292v-81.78a2.749,2.749,0,0,0-1.938-2.631,2.531,2.531,0,0,0-.821-.128H401.047A2.762,2.762,0,0,0,398.28,500.651Zm22.359,28.1a6.116,6.116,0,1,1,12.232,0v9.489a6.116,6.116,0,1,1-12.232,0Z" transform="translate(-245.429 -231.548)" fill="#2f2e41"/>
    <path id="Path_126" data-name="Path 126" d="M398.06,600.632v7.886a1.552,1.552,0,0,0,1.539,1.547h54.565a1.547,1.547,0,0,0,1.539-1.547v-7.886Z" transform="translate(-245.384 -252.365)" fill="#3f3d56"/>
    <path id="Path_127" data-name="Path 127" d="M285.25,345.01V494.329a7.182,7.182,0,0,0,7.176,7.176H513.7a7.182,7.182,0,0,0,7.177-7.176V345.01a7.186,7.186,0,0,0-7.177-7.168H292.426A7.186,7.186,0,0,0,285.25,345.01Z" transform="translate(-222.528 -199.12)" fill="#3f3d56"/>
    <path id="Path_128" data-name="Path 128" d="M291.76,348.185V493.8a3.842,3.842,0,0,0,3.835,3.835H513.178a3.842,3.842,0,0,0,3.835-3.835V348.185a3.844,3.844,0,0,0-3.835-3.843H295.6a3.844,3.844,0,0,0-3.835,3.844Z" transform="translate(-223.847 -200.437)" fill="#fff"/>
    <path id="Path_129" data-name="Path 129" d="M342.264,608.382a2.351,2.351,0,0,0,1.85.885H473.562a2.382,2.382,0,0,0,2.328-2.871l-2.009-9.545a2.386,2.386,0,0,0-1.483-1.73,2.307,2.307,0,0,0-.845-.159H346.115a2.307,2.307,0,0,0-.845.159,2.386,2.386,0,0,0-1.483,1.73l-2.009,9.545A2.38,2.38,0,0,0,342.264,608.382Z" transform="translate(-233.971 -251.216)" fill="#2f2e41"/>
    <path id="Path_130" data-name="Path 130" d="M508.647,369.087H305.055a.81.81,0,1,1,0-1.619H508.647a.81.81,0,1,1,0,1.619Z" transform="translate(-226.376 -205.123)" fill="#3f3d56"/>
    <ellipse id="Ellipse_58" data-name="Ellipse 58" cx="4.745" cy="4.851" rx="4.745" ry="4.851" transform="translate(87.793 148.511)" fill="#3f3d56"/>
    <ellipse id="Ellipse_59" data-name="Ellipse 59" cx="4.745" cy="4.851" rx="4.745" ry="4.851" transform="translate(104.184 148.511)" fill="#3f3d56"/>
    <ellipse id="Ellipse_60" data-name="Ellipse 60" cx="4.745" cy="4.851" rx="4.745" ry="4.851" transform="translate(120.575 148.511)" fill="#3f3d56"/>
    <path id="Path_131" data-name="Path 131" d="M545.029,351.622H533.387a.881.881,0,0,0,0,1.762h11.642a.881.881,0,1,0,0-1.762Z" transform="translate(-272.629 -201.912)" fill="#3f3d56"/>
    <path id="Path_132" data-name="Path 132" d="M545.024,355.772H533.382a.881.881,0,1,0,0,1.762h11.642a.881.881,0,1,0,0-1.762Z" transform="translate(-272.624 -202.753)" fill="#3f3d56"/>
    <path id="Path_133" data-name="Path 133" d="M545.029,359.922H533.387a.881.881,0,0,0,0,1.762h11.642a.881.881,0,1,0,0-1.762Z" transform="translate(-272.629 -203.594)" fill="#3f3d56"/>
    <path id="Path_134" data-name="Path 134" d="M898.685,592.519a5.116,5.116,0,0,0,4.93,3.453l21.124-.544a5.046,5.046,0,0,0,4.769-3.714l2.99-31.965a7.808,7.808,0,0,0,3.379.694,7.7,7.7,0,0,0-.387-15.4,6.517,6.517,0,0,0-1.384.144,5.222,5.222,0,0,0-3.886-1.677l-32.494.839a4.667,4.667,0,0,0-.8.1,5.075,5.075,0,0,0-3.886,6.59Zm34.426-34.939,2.127-7.617a5.189,5.189,0,0,0,.016-2.691c.1,0,.194-.049.3-.049a5.51,5.51,0,0,1,.258,11.018,5.189,5.189,0,0,1-2.7-.659Z" transform="translate(-345.621 -240.791)" fill="#2f2e41"/>
    <path id="Path_135" data-name="Path 135" d="M897.978,544.447c.692,3.958,8.475,6.741,17.834,6.257,8.606-.4,15.643-3.418,16.932-7a4.806,4.806,0,0,0-1.471-.2l-32.494.839A4.673,4.673,0,0,0,897.978,544.447Z" transform="translate(-346.674 -240.79)" fill="#3f3d56"/>
    <path id="Path_136" data-name="Path 136" d="M922.322,581.188a.4.4,0,0,0,.12-.053l4.588-3a.4.4,0,0,0,0-.667l-4.768-3.123a.4.4,0,0,0-.437.667l4.259,2.789-4.078,2.67a.4.4,0,0,0,.316.72Z" transform="translate(-351.469 -247.025)" fill="#b002fa"/>
    <path id="Path_137" data-name="Path 137" d="M912.073,581.607a.4.4,0,0,0,.1-.732l-4.229-2.424,4.087-3.036a.4.4,0,1,0-.475-.639l-4.576,3.4a.4.4,0,0,0,.039.666l4.757,2.727A.4.4,0,0,0,912.073,581.607Z" transform="translate(-348.466 -247.11)" fill="#b002fa"/>
    <path id="Path_138" data-name="Path 138" d="M920.143,583.328a.376.376,0,0,0,.109-.046.4.4,0,0,0,.133-.548l-6.5-10.692a.4.4,0,0,0-.681.415l6.5,10.692A.4.4,0,0,0,920.143,583.328Z" transform="translate(-349.747 -246.533)" fill="#b002fa"/>
    <rect id="Rectangle_90" data-name="Rectangle 90" width="40.443" height="8.648" rx="3.264" transform="translate(166.961 207.98)" fill="#b002fa"/>
    <rect id="Rectangle_91" data-name="Rectangle 91" width="81.522" height="8.648" rx="3.264" transform="translate(146.421 225.277)" fill="#e6e6e6"/>
    <rect id="Rectangle_92" data-name="Rectangle 92" width="81.522" height="8.648" rx="3.264" transform="translate(146.421 242.573)" fill="#b002fa"/>
    <path id="Path_139" data-name="Path 139" d="M497.3,529.461l.173.546.009.018,5.2,15.819,5.985,18.229,11.261,34.257.109,5.321v.018l.837,42.807-2.32,5.8,2.611,9.515s-1.2-14.382-7.641-6.123c-3.648,4.694-7.914,9.5-11.416,14q7.655,3.1,15.555,5.6c1.137.364,2.283.71,3.429,1.055l.737.218a212.8,212.8,0,0,0,53.7,8.633c.946.027,1.874.045,2.774.064.318.009.628.018.937.018,1.019.009,2.028.018,3.047.018q3.084,0,6.14-.091a212.779,212.779,0,0,0,44.727-6.049c-.1-6.049-.373-13.117-.764-20.667-.182-3.7-4.266-7.714-4.512-11.589-.173-2.911,3.493-5.649,3.3-8.605-1.237-18.2-2.783-11.215-3.93-24.1q-.177-1.9-.327-3.629c-.737-8.278-1.246-13.453-1.246-13.453l4.894-30.846,7.686-48.429-.591-.973-.664-.327L596.469,496.45l-2.2-5.64a8.755,8.755,0,0,0-8.087-5.54l-26.707-.109a8.716,8.716,0,0,0-7.1,3.611l-7.231,10.015Z" transform="translate(-265.492 -228.969)"/>
    <path id="Path_140" data-name="Path 140" d="M519,598.593l-6.05,12.944-4.13,8.842-7.1,37.195-3.557,3.775-3.047-13.364-31.894,7.082c-1.046-5.813-.28.2-.926-6.18.182-.182.373-.364.564-.546.509-.473.937-.919.928-1.346-.364-21.995.728-59.426,9.842-82.1a47.887,47.887,0,0,1,5.6-10.452c.182-.246.355-.491.528-.737,4.2-5.885,6.859-11.68,10.625-15.8v-.009a.419.419,0,0,0,.064-.064.129.129,0,0,0,.036-.027l25.87-13.717,1.11,31.182.791,22.413Z" transform="translate(-258.398 -236.855)"/>
    <path id="Path_141" data-name="Path 141" d="M650.391,602.349l7.556,16.167,2.637,5.63,7.1,37.191,3.545,3.766,3.054-13.36,1.435-.294,25.882-5.36,7.544,23.958a14.34,14.34,0,0,0-2.6-17.946c-.515-.466-.944-.92-.932-1.349.429-25.87-1.153-73.107-15.443-92.549-4.539-6.17-7.262-12.315-11.224-16.609-.012-.012-.012-.024-.024-.024l-9.641-15.786-.589-.969-.662-.331Z" transform="translate(-296.51 -236.936)"/>
    <circle id="Ellipse_5" data-name="Ellipse 5" cx="35.53" cy="35.53" r="35.53" transform="translate(272.578 177.532)" fill="#ffb6b6"/>
    <path id="Path_142" data-name="Path 142" d="M630.856,392.938a3,3,0,0,0-2.145-.949l.534-1.483a2.813,2.813,0,0,0-3.158-3.748l-1.945.375.183-1.3a2.818,2.818,0,0,0-3.772-3.046,3,3,0,0,1-2.583-.183,3.067,3.067,0,0,1-1.531-2.081l-.678-3.269-.072-.175c-3.3-5.5-9.648-9.5-17.415-10.972-6.913-1.316-14-.646-20.836-.016-2.711.255-5.773.542-8.325,2.105-2.169,1.34-4,4.019-3.628,6.722-6.738-2.065-13.962,2.057-17.543,7.256-4.242,6.188-4.936,13.938-5.047,20-.3,14.337,2.655,26.067,8.771,34.87.447.638.558,1.97,1.443,2.416l-.183-.3c.989.494,1.993,1.292,1.619,2.145-1.076,2.456,6.076,7.886,11.116,9.68,9.194,3.277,21.418,3,30.013,1.818l.3-2.033c3.1-.423,5.287-1.228,5.9-2.488,1.084-.925,2.009-1.754,2.815-2.52l.008-.008c.016-.016.048-.04.064-.056,3.883-3.724,4.784-5.845,5.191-9.074a26.035,26.035,0,0,0-1.013-9.274c14.943,2.312-5.885-15.916,8.038-19.44a4.328,4.328,0,0,1,.486-.12c.407-.1.813-.191,1.2-.3a21.092,21.092,0,0,0,5.358-2.289c3.891-2.368,5.175-5.51,7.184-9.05a2.732,2.732,0,0,0-.359-3.214Z" transform="translate(-274.726 -204.693)"/>
    <path id="Path_143" data-name="Path 143" d="M691.133,612.285c-.008,1.4-.024,3.349-.088,5.765q-.012.5-.024,1.029c-.1,4.442-.207,8.165-.375,12.3-.008.287-.016.566-.032.853-.223,5.773-.574,12.495-1.18,23.14-1.124,19.663-3.086,2.7-5.056,9.6-.1.343-.2.75-.295,1.228a22.258,22.258,0,0,1-1.5,5.047c-1.045.622-2.121,1.22-3.182,1.818-3.022,1.683-6.092,3.3-9.186,4.84-1.738.861-3.485,1.706-5.239,2.52-.279.128-.55.255-.821.375a216.028,216.028,0,0,1-27.709,10.573c-1.85.558-3.692,1.1-5.558,1.6-1.945.542-3.891,1.053-5.861,1.531a212.8,212.8,0,0,1-44.725,6.052c-2.033.064-4.083.088-6.14.088-1.021,0-2.026-.008-3.046-.016-.311,0-.622-.008-.933-.016-.9-.024-1.834-.04-2.775-.064a212.639,212.639,0,0,1-53.7-8.636l-.742-.215c-1.148-.351-2.288-.694-3.429-1.06q-7.894-2.5-15.557-5.6-5.849-2.356-11.562-5.055a.271.271,0,0,1-.1-.048c-.8-.367-1.6-.75-2.4-1.14-.1-.056-.215-.112-.327-.168q-4.461-2.177-8.827-4.561c-2.448-5.622-5.893-6.7-8.03-11.642a20.63,20.63,0,0,1-1.34-4.577c0-.016-.008-.032-.008-.056.223,2.966-.949-5.263-.008-.032-.008-.1-.016-.2-.024-.319-.024-.287-.056-.638-.1-1.077-2.735-26.7-2.56-57.244-3.748-82.41q-.12-2.44-.247-4.673c-.024-.494-.056-.981-.088-1.459.056-.143.12-.295.191-.438a.789.789,0,0,1,.056-.12,1.3,1.3,0,0,1,.08-.144c.016-.024.04-.056.056-.08a.714.714,0,0,1,.04-.08c.072-.112.152-.231.239-.343.04-.048.072-.088.112-.128a.642.642,0,0,1,.1-.112.513.513,0,0,1,.088-.1c.032-.032.064-.072.1-.112a.243.243,0,0,1,.064-.064,1.608,1.608,0,0,1,.207-.2,7.677,7.677,0,0,1,.909-.718c.112-.072.231-.143.343-.223a15.239,15.239,0,0,1,2.528-1.212c.3-.112.606-.215.933-.327.12-.032.231-.072.351-.112.175-.056.351-.112.534-.152.909-.271,1.89-.5,2.95-.718.128-.024.263-.048.4-.08.191-.04.391-.072.59-.1l.829-.143c2.368-.375,5.055-.654,8.022-.837l.837-.048.989-.048c.279-.016.566-.024.853-.032s.566-.024.861-.032c.805-.024,1.635-.048,2.48-.064,2.408-.048,4.944-.032,7.607.024,1.236.032,2.5.064,3.788.12.088,0,.167.008.247.008,1.124.04,2.257.088,3.421.152.813.04,1.635.08,2.456.128.773.048,1.555.1,2.344.151.614.032,1.228.08,1.85.12.526.04,1.053.08,1.579.112l.718.048c.391.032.781.056,1.18.1l2.647.215c.885.08,1.786.159,2.687.239s1.81.168,2.719.255l.271.024c.829.088,1.659.167,2.5.255.191.016.391.032.582.056.8.08,1.612.174,2.418.26l.741.079c.631.069,1.253.128,1.889.2.837.1,1.69.183,2.52.3.646.072,1.292.144,1.938.223,1.013.12,2.041.247,3.07.383.391.048.781.1,1.172.151,2.934.367,5.9.773,8.915,1.2,4.569.646,9.21,1.348,13.883,2.105s9.388,1.557,14.122,2.4c1.2.215,2.392.431,3.6.654l1.627.311c.925.168,1.85.343,2.775.518s1.85.351,2.775.534l3.309.646c7.248,1.435,14.457,2.966,21.49,4.569,1.156.263,2.313.534,3.461.8q3.445.8,6.826,1.627c.622.144,1.236.3,1.85.447,1.531.383,3.062.766,4.569,1.156l.263.072c1.108.271,2.193.55,3.277.837q3.839,1,7.551,2.033,2.464.682,4.872,1.379c2.4.694,4.752,1.4,7.041,2.105.566.175,1.132.351,1.69.518,1.674.518,3.325,1.045,4.928,1.571,1.276.415,2.52.837,3.748,1.26s2.432.845,3.612,1.268c.758.271,1.507.558,2.257.829,1.076.4,2.137.8,3.173,1.2.319.12.63.247.941.367.2.088.391.16.582.239.375.151.758.295,1.124.447s.742.295,1.108.454c.359.144.726.3,1.076.447s.71.295,1.061.455c.3.12.582.247.861.375.566.247,1.132.494,1.682.75.271.128.542.247.813.375l.622.287c.088.048.175.088.263.128.2.1.407.2.606.295.462.215.917.447,1.363.662.6.3,1.18.606,1.738.9s1.116.606,1.643.9c.088.048.167.1.255.144.12.064.239.135.359.2.407.231.8.471,1.188.7.766.471,1.491.933,2.169,1.4.151.1.3.207.447.3.5.359.981.71,1.427,1.069,0,.008,0,.008.008.008.151.112.3.231.439.343.12.112.247.207.367.319.415.359.8.7,1.148,1.053a4.516,4.516,0,0,1,.335.343.962.962,0,0,1,.128.128c.16.159.3.319.439.478a.438.438,0,0,1,.056.072c.191.223.367.446.534.67.08.112.167.223.239.335.1.135.191.279.271.415.072.112.136.231.2.343a5.773,5.773,0,0,1,.431.9,4.169,4.169,0,0,1,.215.654,4.646,4.646,0,0,1,.136.646Z" transform="translate(-257.361 -244.341)" fill="#2f2e41"/>
    <path id="Path_144" data-name="Path 144" d="M691.131,612.286c-.008,1.4-.024,3.349-.088,5.765-.008.335-.024.678-.032,1.029-.08,3.389-.2,7.575-.367,12.3-.008.287-.016.566-.032.853-.223,5.773-.574,12.5-1.18,23.14-1.124,19.663-3.086,2.7-5.056,9.6-5.47-3.365-11.466-6.889-17.877-10.51q-1.734-.981-3.5-1.969c-12.822-7.153-27.143-14.648-42.094-22.072-.59-.295-1.188-.59-1.778-.877-34.248-16.928-71.629-33.394-101.914-44.382-5.845-2.121-11.427-4.035-16.673-5.717-11.052-3.532-20.6-6-27.956-7.073-7.655-1.116-12.942-.718-15.079,1.587q-.12-2.44-.247-4.673-.048-.741-.1-1.459c.049-.131.113-.257.175-.383.009-.018.015-.037.024-.056a.791.791,0,0,1,.056-.12,1.287,1.287,0,0,1,.08-.144.839.839,0,0,1,.1-.159c.072-.112.151-.231.239-.343a2.792,2.792,0,0,1,.207-.239.511.511,0,0,1,.088-.1c.032-.032.064-.072.1-.112a.242.242,0,0,1,.064-.064,1.612,1.612,0,0,1,.207-.2,7.684,7.684,0,0,1,.909-.718c.112-.072.231-.144.343-.223a15.262,15.262,0,0,1,2.528-1.212c.3-.112.606-.215.933-.327.12-.032.231-.072.351-.112.175-.056.351-.112.534-.151.909-.271,1.89-.5,2.95-.718.319-.064.654-.127.989-.183.271-.048.55-.1.829-.143,2.368-.375,5.055-.654,8.022-.837l.837-.048.989-.048c.279-.016.566-.024.853-.032s.566-.024.861-.032c.805-.024,1.635-.048,2.48-.064,2.408-.04,4.944-.024,7.607.032,1.236.024,2.5.064,3.788.12.08,0,.167.008.247.008,1.124.032,2.265.088,3.421.144.813.04,1.635.08,2.456.128.773.048,1.555.1,2.344.151.614.032,1.228.08,1.85.12.526.04,1.053.08,1.579.112l1.9.143,2.647.215,2.687.239c.9.08,1.81.167,2.719.255l.271.024c.829.088,1.658.167,2.5.255q6.961.706,14.329,1.651,4.4.562,8.915,1.2c4.569.646,9.21,1.348,13.883,2.1s9.388,1.558,14.122,2.4c1.2.215,2.392.431,3.6.654q2.2.407,4.4.829c.925.175,1.85.351,2.775.534l3.309.646c7.248,1.435,14.456,2.966,21.49,4.569,1.156.263,2.312.534,3.461.8q3.445.8,6.826,1.627c.622.151,1.236.3,1.85.454q2.309.574,4.569,1.148v.008c.088.016.175.04.263.064,1.1.279,2.193.558,3.277.845q3.84,1,7.551,2.025c1.643.462,3.269.917,4.872,1.38,2.4.7,4.753,1.4,7.041,2.105.566.175,1.132.351,1.69.518q2.512.789,4.928,1.571c1.276.415,2.52.837,3.748,1.26s2.432.845,3.612,1.268c.765.271,1.515.55,2.257.821,1.084.4,2.137.8,3.174,1.2.319.12.63.247.941.367.582.223,1.148.455,1.707.686.375.144.741.3,1.108.455.359.143.726.295,1.077.446s.71.3,1.06.454c.295.12.582.247.861.375.566.247,1.132.494,1.682.75.271.128.542.247.813.375l.622.287c.088.048.175.088.263.128.678.319,1.332.638,1.97.957.6.3,1.18.606,1.738.9.662.351,1.292.694,1.9,1.045.12.064.239.135.359.2.407.231.8.47,1.188.7.766.47,1.491.933,2.169,1.4s1.292.917,1.874,1.372c0,.008,0,.008.008.008.279.223.55.447.805.662.415.359.8.7,1.148,1.052a4.542,4.542,0,0,1,.335.343.964.964,0,0,1,.127.128c.168.183.335.367.494.55.191.223.367.447.534.67.08.112.168.223.239.335.1.135.191.279.271.415.072.112.136.231.2.343a5.8,5.8,0,0,1,.431.9,4.835,4.835,0,0,1,.215.654,4.667,4.667,0,0,1,.136.646Z" transform="translate(-257.359 -244.343)" opacity="0.2"/>
  </g>
</svg>
