<svg xmlns="http://www.w3.org/2000/svg" width="533.143" height="426.374" viewBox="0 0 533.143 426.374">
  <g id="Group_37" data-name="Group 37" transform="translate(0 -38.568)">
    <path id="Path_194" data-name="Path 194" d="M351.305,352.959a24.38,24.38,0,0,1-3.754.088.819.819,0,0,0-.9.711l-2.395,17.963a7.292,7.292,0,0,1-1.545,3.559,7.756,7.756,0,0,0-1.746,5.928v30.514s-.154,4.069,2.972,4.069a45.192,45.192,0,0,0,11.268,0s2.5-.474,2.5-4.228V381.516a7.349,7.349,0,0,0-1.545-5.974,7.478,7.478,0,0,1-1.5-3.538l-2.488-18.339a.819.819,0,0,0-.87-.706Z" transform="translate(-262.876 -191.104)" fill="#fff"/>
    <path id="Path_195" data-name="Path 195" d="M349.367,416.463a45.616,45.616,0,0,1-5.659-.352,3.042,3.042,0,0,1-2.253-.923,5.626,5.626,0,0,1-1.2-3.68V381.045a8.3,8.3,0,0,1,1.866-6.289,6.774,6.774,0,0,0,1.43-3.3l2.394-17.96a1.341,1.341,0,0,1,1.468-1.155,23.76,23.76,0,0,0,3.647-.088h.014a1.334,1.334,0,0,1,1.418,1.149l2.488,18.34a6.969,6.969,0,0,0,1.395,3.291,7.844,7.844,0,0,1,1.653,6.336v30c0,4.133-2.893,4.729-2.922,4.734a45.952,45.952,0,0,1-5.741.36Zm-2.078-63.1a.309.309,0,0,0-.32.264l-2.4,17.967a7.812,7.812,0,0,1-1.655,3.814,7.271,7.271,0,0,0-1.635,5.541l0,.063v30.514a4.671,4.671,0,0,0,.912,2.948,2.031,2.031,0,0,0,1.544.605l.064,0a44.729,44.729,0,0,0,11.14,0c.049-.012,2.052-.469,2.052-3.717l.008-30.138a6.823,6.823,0,0,0-1.437-5.555,8.014,8.014,0,0,1-1.61-3.792l-2.488-18.343a.306.306,0,0,0-.318-.261,25,25,0,0,1-3.825.089l-.042,0Z" transform="translate(-262.684 -190.911)" fill="#3f3d56"/>
    <path id="Path_196" data-name="Path 196" d="M114.195,261.989h3.8a5.691,5.691,0,0,1,5.691,5.691v14.281a5.691,5.691,0,0,1-5.691,5.691h-3.8a5.691,5.691,0,0,1-5.691-5.691V267.68a5.691,5.691,0,0,1,5.691-5.691Z" transform="translate(-29.546 -71.34)"/>
    <path id="Path_197" data-name="Path 197" d="M20.431,604.576H32.806l5.887-47.73H20.429Z" transform="translate(-5.563 -151.63)" fill="#9f616a"/>
    <path id="Path_198" data-name="Path 198" d="M249.773,747.425h24.371a15.531,15.531,0,0,1,15.53,15.529v.506h-39.9Z" transform="translate(-238.061 -298.518)"/>
    <path id="Path_199" data-name="Path 199" d="M242.819,518.7s-5.363,6.062,3.517,29.694l-1.564,129.576,28.778-.561,6.326-63.206,11.517-92.236Z" transform="translate(-235.731 -236.237)"/>
    <path id="Path_200" data-name="Path 200" d="M299.213,485.218l-.315-.048c-36.816-5.615-64.6-11-64.874-11.051l-.345-.067,9.651-23.473c-.076-2.453-2.165-71.331,1.834-91.121,3.871-19.157,22.12-22.3,24.2-22.592l2.088-6.919,26.38,13.727,4.6,15.835.935,43.4Z" transform="translate(-233.679 -184.838)" fill="#161617"/>
    <path id="Path_201" data-name="Path 201" d="M320.533,420.57a8.61,8.61,0,0,0-6.326,2.767h-44.34l-16.242,3.457,2.667,20.568,57.776-12.426a8.638,8.638,0,1,0,6.464-14.365Z" transform="translate(-239.11 -209.515)" fill="#9f616a"/>
    <circle id="Ellipse_73" data-name="Ellipse 73" cx="21.37" cy="21.37" r="21.37" transform="translate(34.054 135.585) rotate(-61.337)" fill="#9f616a"/>
    <path id="Path_202" data-name="Path 202" d="M290.718,277.259l-1.036-2.085,5.213-2.59s5.751-9.357,16.157-6.727,15.088,4.2,15.088,4.2l5.2,2.616-2.61,2.6,4.682,1.574-3.128,1.554,3.639,2.092-1.959,10.723s-3.254-8.133-9.509-5.025-17.7-1.607-17.7-1.607l-9.941,19.238s-2.051-6.744-5.707-4.946C289.11,298.876,279.768,284,290.718,277.259Z" transform="translate(-247.761 -167.26)" fill="#2f2e41"/>
    <path id="Path_203" data-name="Path 203" d="M255.324,430.26l-5.071-15.083L249.026,364.9l2.161-7.134a19.931,19.931,0,1,1,37.642,13.023l-11.58,29.675.589,1.142,25.089-.2,8.912,16.042Z" transform="translate(-237.858 -188.559)" fill="#b002fa"/>
    <path id="Path_204" data-name="Path 204" d="M598.083,440.6a7.722,7.722,0,0,0,1.234-11.776l12.367-24.5-14.165,1.643-9.572,23.01A7.764,7.764,0,0,0,598.083,440.6Z" transform="translate(-329.6 -205.091)" fill="#ffb7b7"/>
    <path id="Path_205" data-name="Path 205" d="M499.085,545.989H487.94L482.638,503h16.449Z" transform="translate(-131.423 -136.967)" fill="#ffb7b7"/>
    <path id="Path_206" data-name="Path 206" d="M729.377,702.056H693.44V701.6a13.988,13.988,0,0,1,13.986-13.987h21.951Z" transform="translate(-358.872 -282.232)"/>
    <path id="Path_207" data-name="Path 207" d="M415.385,545.989H404.24L398.938,503h16.45Z" transform="translate(-108.631 -136.967)" fill="#ffb7b7"/>
    <path id="Path_208" data-name="Path 208" d="M641.93,702.055H605.993V701.6a13.988,13.988,0,0,1,13.987-13.987H641.93Z" transform="translate(-335.06 -282.231)"/>
    <path id="Path_209" data-name="Path 209" d="M412.836,312.572,401.927,337.7l-9,144.452,22.727-.909,6.207-68.861,19.148-61.332,11.008,68.375,4.546,60,18.805.814,7.494-167.671Z" transform="translate(-106.995 -85.114)"/>
    <path id="Path_210" data-name="Path 210" d="M705.408,272.694l-31.618.791-18.563,9.529-1.019,70.306-11.577,48.54s72.336,4.978,82.336-2.294L713.15,344.112,729,284.183Z" transform="translate(-345.037 -169.248)" fill="#b002fa"/>
    <path id="Path_211" data-name="Path 211" d="M646.165,287.734l-2.943-1.988s-12.194,3.655-15.8,19.914c0,0-2.758,8.158-3.968,13.766-1.388,6.433-32.038,65.523-32.038,65.523l18.35,5.264,33.643-54.407Z" transform="translate(-331.091 -172.803)" fill="#b002fa"/>
    <path id="Path_212" data-name="Path 212" d="M759.489,452.106a7.722,7.722,0,0,1,2.061-11.66l-5.132-26.956,13.162,5.485,2.856,24.757a7.764,7.764,0,0,1-12.947,8.373Z" transform="translate(-376.022 -207.587)" fill="#ffb7b7"/>
    <path id="Path_213" data-name="Path 213" d="M751.516,289.225l3.377-1.1s10.713,6.876,9.694,23.5c0,0,.4,8.6.018,14.327-.44,6.566,5.454,71.817,5.454,71.817H750.969l-8.182-59.091Z" transform="translate(-372.31 -173.45)" fill="#b002fa"/>
    <path id="Path_214" data-name="Path 214" d="M723.162,223.958a21.918,21.918,0,1,1-21.918-21.918h0a21.863,21.863,0,0,1,21.918,21.809Z" transform="translate(-355.029 -150.009)" fill="#ffb7b7"/>
    <path id="Path_215" data-name="Path 215" d="M679.074,189.481c2.568-5.521,7.536-4.43,11.882-2.558,5.5-1.221,10.737-4.875,16.666-2.714,5.84,8.494,25.449,6,21.277,19.824-.005,3.314,6.235,1.385,5.146,6.812,3.306,10.445-11.933,30.225-20.682,26.059,2.164-3.965,7.106-12.972-.39-13.865-16.126,15-1.664-28.573-21.926-15.9C684.338,213.28,675.153,195.622,679.074,189.481Z" transform="translate(-354.704 -144.971)"/>
    <path id="Path_216" data-name="Path 216" d="M763.693,443.868a7.284,7.284,0,0,0,8.718-6.982l55.034-51.8-12.383-9.878-50.3,54.154a7.323,7.323,0,0,0-1.073,14.5Z" transform="translate(-376.389 -197.163)" fill="#9f616a"/>
    <path id="Path_217" data-name="Path 217" d="M838.5,389.695,827.8,377.147a3.266,3.266,0,0,1,.751-4.888l13.939-8.726a9.07,9.07,0,1,1,11.734,13.834l-10.772,12.355a3.266,3.266,0,0,1-4.945-.027Z" transform="translate(-395.245 -193.398)" fill="#b002fa"/>
    <path id="Path_218" data-name="Path 218" d="M562.127,601.576H548.672l-6.4-51.9h19.86Z" transform="translate(-147.661 -149.677)" fill="#9f616a"/>
    <path id="Path_219" data-name="Path 219" d="M791.717,762.936l-43.387,0v-.549A16.888,16.888,0,0,1,765.216,745.5h26.5Z" transform="translate(-373.819 -297.994)"/>
    <path id="Path_220" data-name="Path 220" d="M709.935,601.576H696.48l-6.4-51.9h19.86Z" transform="translate(-187.909 -149.677)" fill="#9f616a"/>
    <path id="Path_221" data-name="Path 221" d="M939.525,762.936l-43.387,0v-.549A16.888,16.888,0,0,1,913.024,745.5h26.5Z" transform="translate(-414.067 -297.994)"/>
    <path id="Path_222" data-name="Path 222" d="M859.049,415.644l13.563-50.111-17.6-9.89H830.455l-9.553,10.22s-15.96,11.1-12.1,23.407l6.232,28.023L805.506,461.8l-48.021,66.6-11.367,65.414,44.747,11.731,48.388-95.278,23.461,105.5,43.645-2.2L891.32,485.649s-4.287-38.968-26.76-63.3Z" transform="translate(-373.217 -191.835)"/>
    <path id="Path_223" data-name="Path 223" d="M929.86,468.293a7.284,7.284,0,0,0-.933-11.13l-10.524-71-15.1,4.77,15.12,68.378a7.323,7.323,0,0,0,11.442,8.98Z" transform="translate(-416.017 -200.147)" fill="#9f616a"/>
    <path id="Path_224" data-name="Path 224" d="M920.135,391.009,903.749,392.9a3.266,3.266,0,0,1-3.638-3.35l.531-16.436a9.07,9.07,0,1,1,18.027-2.025l4.247,15.832a3.266,3.266,0,0,1-2.781,4.09Z" transform="translate(-415.149 -193.847)" fill="#b002fa"/>
    <path id="Path_225" data-name="Path 225" d="M841.146,317.57V296.457a28.293,28.293,0,0,1,56.586,0v21.114a3.8,3.8,0,0,1-3.8,3.8H844.947A3.8,3.8,0,0,1,841.146,317.57Z" transform="translate(-399.093 -168.015)" fill="#2f2e41"/>
    <circle id="Ellipse_74" data-name="Ellipse 74" cx="20.743" cy="20.743" r="20.743" transform="translate(436.378 123.869) rotate(-28.663)" fill="#9f616a"/>
    <path id="Path_226" data-name="Path 226" d="M831.948,300.99a22.406,22.406,0,0,1,22.381-22.381h4.223a22.406,22.406,0,0,1,22.381,22.381v.422h-8.924l-3.044-8.523-.609,8.523h-4.612l-1.536-4.3-.307,4.3H831.948Z" transform="translate(-396.588 -170.859)" fill="#2f2e41"/>
    <path id="Path_227" data-name="Path 227" d="M868.957,330.1a3.744,3.744,0,0,1-.3-3.975c4.475-8.512,10.741-24.239,2.424-33.938l-.6-.7H894.63v36.249L872.7,331.6a3.883,3.883,0,0,1-.673.059,3.785,3.785,0,0,1-3.067-1.567Z" transform="translate(-406.467 -174.365)" fill="#2f2e41"/>
    <path id="Path_228" data-name="Path 228" d="M542.451,367.95a8.344,8.344,0,0,0-.84,1.012L502.273,368l-4.589-8.386-13.561,5.272L490.8,380.52a6.348,6.348,0,0,0,6.6,3.808l44.446-5.369a8.329,8.329,0,1,0,.6-11.009Z" transform="translate(-301.875 -192.917)" fill="#ffb7b7"/>
    <path id="Path_229" data-name="Path 229" d="M154.373,550.167h12.935l6.153-49.892h-19.09Z" transform="translate(-42.035 -136.226)" fill="#ffb7b7"/>
    <path id="Path_230" data-name="Path 230" d="M383.519,693.573h25.474A16.234,16.234,0,0,1,425.227,709.8v.528l-41.707,0Z" transform="translate(-274.48 -283.854)"/>
    <path id="Path_231" data-name="Path 231" d="M308.444,548.466l11.895-5.082-13.941-48.3-17.555,7.5Z" transform="translate(-78.652 -134.813)" fill="#ffb7b7"/>
    <path id="Path_232" data-name="Path 232" d="M543.007,691.19l23.425-10.008h0a16.235,16.235,0,0,1,21.305,8.551l.207.485L549.592,706.6Z" transform="translate(-317.909 -280.124)"/>
    <path id="Path_233" data-name="Path 233" d="M220.187,254.681l.935,15.157-27.34,2.926-28.609,3.061,8.42-23.016Z" transform="translate(-44.977 -68.841)" fill="#ffb7b7"/>
    <path id="Path_234" data-name="Path 234" d="M454.6,364.363c-.31-.122-31.191-12.134-50.16-2.312l-.466.242-3.784-18.626-2.156-40.045,14.031-6.63,3.863-8.653,26.313-1.557,5.407,7.416,18.41,6.034-11,64.312Z" transform="translate(-278.434 -173.085)"/>
    <path id="Path_235" data-name="Path 235" d="M477.1,333.31l3.255-25.573,7.411-2.256.125.046c.171.063,4.2,1.6,5.3,7.18,1.058,5.352,9.028,38.658,9.109,38.993l.08.333-18.726,7.492Z" transform="translate(-299.963 -178.176)"/>
    <path id="Path_236" data-name="Path 236" d="M494.2,608.4l24.927-5.113L479.29,493.355l-13.635-37.5s-8.649-30.065-12.556-41.7l-2.358-15.611-55.82,6.178s-15.59,22.9-10.854,60.215l-2.142,140.267,24.927,1.278,20.879-141.467,36.645,77.551s11.55,33.094,19.814,40.267Z" transform="translate(-274.046 -203.518)" fill="#b002fa"/>
    <path id="Path_237" data-name="Path 237" d="M413.751,397.407a8.349,8.349,0,0,0-1.313.072l-26.041-29.5,3.029-9.067-13.086-6.36-6.923,15.53a6.348,6.348,0,0,0,1.694,7.427l34.156,28.941a8.329,8.329,0,1,0,8.484-7.043Z" transform="translate(-270.49 -190.993)" fill="#ffb7b7"/>
    <path id="Path_238" data-name="Path 238" d="M375.9,345.31l10.18-29c1.144-3.418,2.578-5.495,4.261-6.173a2.629,2.629,0,0,1,2.113-.02l4.565,5.767,4.237,17.8-10.863,25.552Z" transform="translate(-272.404 -179.382)"/>
    <path id="Path_239" data-name="Path 239" d="M450.475,260.371H405.782a3.471,3.471,0,0,1-3.467-3.467V237.64a25.814,25.814,0,0,1,51.627,0V256.9A3.471,3.471,0,0,1,450.475,260.371Z" transform="translate(-279.599 -152.674)" fill="#2f2e41"/>
    <circle id="Ellipse_75" data-name="Ellipse 75" cx="18.926" cy="18.926" r="18.926" transform="translate(134.909 69.397)" fill="#ffb7b7"/>
    <path id="Path_240" data-name="Path 240" d="M464.929,242.161H437.6l-.28-3.924-1.4,3.924h-4.208l-.555-7.776-2.777,7.776h-8.142v-.385a20.443,20.443,0,0,1,20.42-20.42h3.853a20.443,20.443,0,0,1,20.42,20.42Z" transform="translate(-284.479 -155.269)" fill="#2f2e41"/>
    <path id="Path_241" data-name="Path 241" d="M436.073,269.761a3.542,3.542,0,0,1-.614-.054l-20.011-3.531V233.1h22.028l-.545.636c-7.588,8.849-1.871,23.2,2.212,30.965a3.416,3.416,0,0,1-.271,3.627A3.454,3.454,0,0,1,436.073,269.761Z" transform="translate(-283.175 -158.468)" fill="#2f2e41"/>
    <path id="Path_242" data-name="Path 242" d="M769.305,392.719a24.388,24.388,0,0,1-3.754.087.819.819,0,0,0-.9.711l-2.395,17.963a7.292,7.292,0,0,1-1.545,3.559,7.756,7.756,0,0,0-1.746,5.928v30.514s-.154,4.069,2.972,4.069a45.192,45.192,0,0,0,11.268,0s2.5-.474,2.5-4.228V421.276a7.349,7.349,0,0,0-1.545-5.974,7.479,7.479,0,0,1-1.5-3.538l-2.487-18.339A.819.819,0,0,0,769.305,392.719Z" transform="translate(-376.699 -201.931)" fill="#fff"/>
    <path id="Path_243" data-name="Path 243" d="M767.367,456.224a45.615,45.615,0,0,1-5.659-.352,3.042,3.042,0,0,1-2.253-.923,5.626,5.626,0,0,1-1.2-3.68V420.806a8.3,8.3,0,0,1,1.866-6.289,6.773,6.773,0,0,0,1.43-3.3l2.394-17.96a1.341,1.341,0,0,1,1.468-1.155,23.764,23.764,0,0,0,3.647-.088h.014a1.334,1.334,0,0,1,1.418,1.149l2.488,18.34a6.971,6.971,0,0,0,1.395,3.291,7.844,7.844,0,0,1,1.653,6.336v30c0,4.133-2.893,4.729-2.922,4.734A45.954,45.954,0,0,1,767.367,456.224Zm-2.078-63.1a.309.309,0,0,0-.32.264l-2.4,17.967a7.812,7.812,0,0,1-1.655,3.814,7.271,7.271,0,0,0-1.635,5.541l0,.063v30.514a4.671,4.671,0,0,0,.912,2.948,2.031,2.031,0,0,0,1.544.605l.064,0a44.729,44.729,0,0,0,11.14,0c.049-.012,2.052-.469,2.052-3.717l.008-30.138a6.823,6.823,0,0,0-1.437-5.555,8.014,8.014,0,0,1-1.61-3.792L769.473,393.3a.306.306,0,0,0-.317-.261,25,25,0,0,1-3.825.089l-.042,0Z" transform="translate(-376.506 -201.738)" fill="#3f3d56"/>
    <path id="Path_244" data-name="Path 244" d="M532.194,301.749h3.8a5.691,5.691,0,0,1,5.691,5.691v14.281a5.691,5.691,0,0,1-5.691,5.691h-3.8a5.691,5.691,0,0,1-5.691-5.691V307.44a5.691,5.691,0,0,1,5.691-5.691Z" transform="translate(-143.368 -82.167)"/>
    <path id="Path_245" data-name="Path 245" d="M592.305,358.719a24.38,24.38,0,0,1-3.754.088.819.819,0,0,0-.9.711l-2.395,17.963a7.293,7.293,0,0,1-1.545,3.559,7.756,7.756,0,0,0-1.746,5.928v30.514s-.154,4.069,2.972,4.069a45.192,45.192,0,0,0,11.268,0s2.5-.474,2.5-4.228V387.276a7.349,7.349,0,0,0-1.545-5.974,7.478,7.478,0,0,1-1.5-3.538l-2.487-18.339A.819.819,0,0,0,592.305,358.719Z" transform="translate(-328.501 -192.673)" fill="#fff"/>
    <path id="Path_246" data-name="Path 246" d="M590.367,422.224a45.622,45.622,0,0,1-5.659-.352,3.042,3.042,0,0,1-2.253-.923,5.626,5.626,0,0,1-1.2-3.68V386.806a8.3,8.3,0,0,1,1.866-6.289,6.774,6.774,0,0,0,1.43-3.3l2.394-17.96a1.341,1.341,0,0,1,1.468-1.155,23.76,23.76,0,0,0,3.647-.088h.014a1.334,1.334,0,0,1,1.418,1.149l2.488,18.34a6.969,6.969,0,0,0,1.395,3.291,7.844,7.844,0,0,1,1.653,6.336v30c0,4.133-2.893,4.729-2.922,4.734A45.954,45.954,0,0,1,590.367,422.224Zm-2.078-63.1a.309.309,0,0,0-.32.264l-2.4,17.967a7.813,7.813,0,0,1-1.655,3.814,7.271,7.271,0,0,0-1.636,5.541l0,.063v30.514a4.671,4.671,0,0,0,.912,2.948,2.031,2.031,0,0,0,1.544.605l.064,0a44.727,44.727,0,0,0,11.14,0c.049-.012,2.052-.469,2.052-3.717l.008-30.138a6.823,6.823,0,0,0-1.437-5.555,8.014,8.014,0,0,1-1.61-3.792L592.473,359.3a.306.306,0,0,0-.317-.261,25.008,25.008,0,0,1-3.825.089l-.042,0Z" transform="translate(-328.309 -192.48)" fill="#3f3d56"/>
    <path id="Path_247" data-name="Path 247" d="M355.195,267.749h3.8a5.691,5.691,0,0,1,5.691,5.691v14.281a5.691,5.691,0,0,1-5.691,5.691h-3.8a5.691,5.691,0,0,1-5.691-5.691V273.44a5.691,5.691,0,0,1,5.691-5.691Z" transform="translate(-95.17 -72.909)"/>
    <path id="Path_248" data-name="Path 248" d="M562.305,322.719a24.381,24.381,0,0,1-3.754.088.819.819,0,0,0-.9.711l-2.395,17.963a7.293,7.293,0,0,1-1.545,3.559,7.756,7.756,0,0,0-1.746,5.928v30.514s-.154,4.069,2.972,4.069a45.193,45.193,0,0,0,11.268,0s2.5-.474,2.5-4.228V351.276a7.349,7.349,0,0,0-1.545-5.974,7.477,7.477,0,0,1-1.5-3.538l-2.487-18.339a.819.819,0,0,0-.87-.706Z" transform="translate(-320.332 -182.87)" fill="#fff"/>
    <path id="Path_249" data-name="Path 249" d="M560.367,386.224a45.612,45.612,0,0,1-5.659-.352,3.042,3.042,0,0,1-2.253-.923,5.627,5.627,0,0,1-1.2-3.68V350.806a8.3,8.3,0,0,1,1.866-6.289,6.774,6.774,0,0,0,1.43-3.3l2.394-17.96a1.341,1.341,0,0,1,1.468-1.154,23.767,23.767,0,0,0,3.647-.088h.014a1.334,1.334,0,0,1,1.418,1.149l2.488,18.34a6.97,6.97,0,0,0,1.395,3.291,7.844,7.844,0,0,1,1.653,6.336v30c0,4.133-2.893,4.729-2.922,4.734A45.948,45.948,0,0,1,560.367,386.224Zm-2.078-63.1a.309.309,0,0,0-.32.264l-2.4,17.967a7.813,7.813,0,0,1-1.655,3.814,7.27,7.27,0,0,0-1.635,5.541l0,.063v30.514a4.67,4.67,0,0,0,.912,2.948,2.031,2.031,0,0,0,1.544.605l.064,0a44.732,44.732,0,0,0,11.14,0c.049-.012,2.052-.469,2.052-3.717l.008-30.138a6.823,6.823,0,0,0-1.437-5.555,8.014,8.014,0,0,1-1.61-3.792L562.473,323.3a.306.306,0,0,0-.318-.261,25,25,0,0,1-3.825.089l-.042,0Z" transform="translate(-320.14 -182.677)" fill="#3f3d56"/>
    <path id="Path_250" data-name="Path 250" d="M325.195,231.749h3.8a5.691,5.691,0,0,1,5.691,5.691v14.281a5.691,5.691,0,0,1-5.691,5.691h-3.8a5.691,5.691,0,0,1-5.691-5.691V237.44a5.691,5.691,0,0,1,5.691-5.691Z" transform="translate(-87.001 -63.106)"/>
  </g>
</svg>
