<svg xmlns="http://www.w3.org/2000/svg" width="373.4" height="574.344" viewBox="0 0 373.4 574.344">
  <g id="Group_9" data-name="Group 9" transform="translate(0 0)">
    <path id="Path_12" data-name="Path 12" d="M451.39,130.83,441.2,87.166l-3.324-14.224a4.706,4.706,0,0,0-5.623-3.421l-5.021,1.1-40.263,8.77a4.527,4.527,0,0,0-3.543,5.415c-2.162,19.428,2.107,37.351,11.369,54.125.684,1.255,1.409,2.509,2.162,3.764a4.441,4.441,0,0,0,1.327,2.272,4.825,4.825,0,0,0,4.282,1.149l5.281-1.149,3.256-.713,36.747-8a4.53,4.53,0,0,0,3.543-5.415Z" transform="translate(-382.871 -69.407)" fill="#e6e6e6"/>
    <path id="Path_13" data-name="Path 13" d="M448.478,129.756l-9.714-41.538-2.326-9.972a4.4,4.4,0,0,0-5.254-3.209l-3.092.674-35.831,7.806a4.246,4.246,0,0,0-3.324,5.072c.315,15.123,1.956,28.845,8.7,37.219a19.2,19.2,0,0,0,13.435,13.908c.082.026.15.053.232.079.055.013.123.04.178.053a20.12,20.12,0,0,0,9.563.238l24.106-5.257A4.246,4.246,0,0,0,448.478,129.756Z" transform="translate(-384.173 -70.764)" fill="#fff"/>
    <path id="Path_14" data-name="Path 14" d="M418.82,103.153a5.746,5.746,0,0,1,6.562-1.381,5.5,5.5,0,0,1,2.937,6.045c-.427,2.725-1.9,5.205-2.035,8a6.786,6.786,0,0,0,3.067,6.321c1.607.943,3.261-1.391,1.646-2.338-2.657-1.558-1.764-4.983-.993-7.319.962-2.917,1.965-5.891.775-8.9a8.347,8.347,0,0,0-6.22-4.931,8.6,8.6,0,0,0-7.663,2.373c-1.268,1.32.641,3.467,1.925,2.131Z" transform="translate(-390.211 -76.549)" fill="#b002fa"/>
    <ellipse id="Ellipse_11" data-name="Ellipse 11" cx="2.928" cy="2.827" rx="2.928" ry="2.827" transform="translate(38.578 48.077)" fill="#b002fa"/>
    <path id="Path_15" data-name="Path 15" d="M653.123,793.509l-46.36-.267-15.1-.085c-2.6-.013-4.723.94-4.752,2.128l-.061,2.357-.509,18.9c-.039,1.181,2.038,2.161,4.634,2.174a203.6,203.6,0,0,0,57.172.895q2.134-.25,4.294-.548a9.063,9.063,0,0,0,2.6-.341c1.282-.382,2.129-1.036,2.152-1.781l.068-2.479.037-1.529.465-17.249C657.785,794.5,655.7,793.521,653.123,793.509Z" transform="translate(-395.135 -247.06)" fill="#e6e6e6"/>
    <path id="Path_16" data-name="Path 16" d="M650.735,795.657l-44.106-.246-10.587-.062c-2.426-.014-4.423.876-4.453,1.987l-.039,1.451-.451,16.819c-.03,1.111,1.912,2.025,4.338,2.039,15.31,1.525,29.517,2.3,39.52.222,7.281.036,13.7-1.762,17.131-4.453.046-.034.088-.061.134-.095.026-.023.069-.05.095-.073a5.848,5.848,0,0,0,2.459-4.233l.3-11.316C655.1,796.585,653.161,795.67,650.735,795.657Z" transform="translate(-396.261 -247.597)" fill="#fff"/>
    <path id="Path_17" data-name="Path 17" d="M613.94,810.375c-1.352-.927-1.493-2.187.131-3.075a11.006,11.006,0,0,1,6.772-.643c2.646.49,4.8,1.42,7.583,1.787a13.963,13.963,0,0,0,7.081-.67c1.323-.612-.644-1.606-1.973-.991-2.187,1.012-5.43.237-7.605-.363a25.782,25.782,0,0,0-8.784-1.324c-6.012.363-9.149,3.605-5.8,5.9C612.382,811.708,614.989,811.094,613.94,810.375Z" transform="translate(-401.221 -249.982)" fill="#e6e6e6"/>
    <ellipse id="Ellipse_12" data-name="Ellipse 12" cx="2.928" cy="1.341" rx="2.928" ry="1.341" transform="translate(239.014 555.983)" fill="#e6e6e6"/>
    <path id="Path_18" data-name="Path 18" d="M385.538,342.577c-4.028-16.333-3.356-32.419,3.541-48.18a3.782,3.782,0,0,1,4.08-3.417l37.691,2.582a3.737,3.737,0,0,1,3.54,3.939l-3.541,48.18a3.782,3.782,0,0,1-4.08,3.417l-37.691-2.582a3.737,3.737,0,0,1-3.54-3.939Z" transform="translate(-382.912 -123.792)" fill="#f2f2f2"/>
    <path id="Path_19" data-name="Path 19" d="M390.849,329.221c-3.224-8.048-1.162-19.118,2.277-30.975a3.542,3.542,0,0,1,3.821-3.2l32.392,2.219a3.5,3.5,0,0,1,3.315,3.689L429.5,343.828a3.542,3.542,0,0,1-3.822,3.2l-20.066-1.375a15.589,15.589,0,0,1-14.766-16.433Z" transform="translate(-384.262 -124.791)" fill="#fff"/>
    <path id="Path_20" data-name="Path 20" d="M416.841,335.63l-2.968-.492a9.345,9.345,0,0,0,.777-3.273c.468-6.03.515-12.118.765-18.16a1.147,1.147,0,0,0-.732-1.026,1.219,1.219,0,0,0-1.269.226l-7.455,5.961c-1.163.93.5,2.524,1.658,1.6l5.351-4.278-.491,11.878c-.079,1.9.161,4.208-.645,5.994a2.871,2.871,0,0,1-.427.67l-3.286-.545c-.788-.131-1.789.5-1.442,1.392a3.647,3.647,0,0,0,4.883,1.8,4.01,4.01,0,0,0,.486-.252l4.173.692C417.693,338.058,418.327,335.876,416.841,335.63Z" transform="translate(-387.828 -129.1)" fill="#b002fa"/>
    <path id="Path_21" data-name="Path 21" d="M560.538,348.577c-4.028-16.333-3.356-32.419,3.541-48.18a3.782,3.782,0,0,1,4.08-3.417l37.691,2.582a3.737,3.737,0,0,1,3.54,3.939l-3.541,48.18a3.782,3.782,0,0,1-4.08,3.417l-37.691-2.582A3.737,3.737,0,0,1,560.538,348.577Z" transform="translate(-404.974 -125.265)" fill="#f2f2f2"/>
    <path id="Path_22" data-name="Path 22" d="M565.849,335.221c-3.224-8.048-1.162-19.118,2.277-30.975a3.542,3.542,0,0,1,3.821-3.2l32.392,2.219a3.5,3.5,0,0,1,3.315,3.689L604.5,349.828a3.542,3.542,0,0,1-3.822,3.2l-20.066-1.375A15.589,15.589,0,0,1,565.849,335.221Z" transform="translate(-406.201 -126.263)" fill="#fff"/>
    <path id="Path_23" data-name="Path 23" d="M590.491,331.432a6.649,6.649,0,0,0,1.215-.712,6.362,6.362,0,0,0,2.2-6.754c-1.52-5.39-8.2-5.423-12.81-4.775-1.488.209-.855,2.391.623,2.183,3.108-.437,7.986-.79,9.656,2.486a4.19,4.19,0,0,1-.714,4.742,4.406,4.406,0,0,1-2.639,1.211,7.193,7.193,0,0,0-3.07-.553c-1.086.049-1.692,1.575-.592,2.109a7.251,7.251,0,0,0,3.134.713,4.883,4.883,0,0,1,2.866,4.677,5.048,5.048,0,0,1-2.091,3.332,5.4,5.4,0,0,1-3.921.918c-1.473-.286-2.1,1.9-.623,2.183a7.837,7.837,0,0,0,5.843-1.245,7.322,7.322,0,0,0,3.11-4.935,6.746,6.746,0,0,0-2.189-5.581Z" transform="translate(-409.868 -130.649)" fill="#b002fa"/>
    <path id="Path_24" data-name="Path 24" d="M266.636,689.381H253.375L247.067,640l19.572,0Z" transform="translate(-21.436 -157.095)" fill="#ffb6b6"/>
    <path id="Path_25" data-name="Path 25" d="M644.177,785.63l-40.779,0v-.5c0-8.461,7.106-15.322,15.871-15.323h0l7.449-5.456,13.9,5.456h3.56Z" transform="translate(-399.414 -239.989)" fill="#2f2e41"/>
    <path id="Path_26" data-name="Path 26" d="M344.636,725.381H331.375L325.067,676l19.572,0Z" transform="translate(-37.991 -165.932)" fill="#ffb6b6"/>
    <path id="Path_27" data-name="Path 27" d="M722.177,821.63l-40.779,0v-.5c0-8.461,7.105-15.322,15.871-15.323h0l7.449-5.455,13.9,5.456h3.56Z" transform="translate(-415.509 -248.826)" fill="#2f2e41"/>
    <path id="Path_28" data-name="Path 28" d="M523.559,282.563a9.653,9.653,0,0,0,14.36-.343l45.216,12.425,6.635-11.229-53.815-14.379a9.661,9.661,0,0,0-12.421,1.447,8.859,8.859,0,0,0,.025,12.078Z" transform="translate(-397.507 -123.011)" fill="#ffb6b6"/>
    <path id="Path_29" data-name="Path 29" d="M659.843,425.226,612.266,530.243l-5.471,16.6,16.541,116.513,26.7-1.258-.06-14.942s-6.354-3.326-.021-5.133,6.066-6.393-.053-13.155-.287-71.462-.287-71.462,25.2-23.293,22.451-29.378,2.351-6.085,2.351-6.085,5.432-.938,5.64-3.487,4.233-7.675,4.233-7.675l-1.41,179.447h23.037s10.532-16.9,8.462-20.532-4.964-3.993,0-8.342,12.251-.79,9-8.983-2.417-96.607-2.417-96.607,12.815-51.307,4.9-54.79-3.981-2.992.694-7.765-3.254-4.337.711-7.95,4.125-46.142,4.125-46.142Z" transform="translate(-397.78 -156.747)"/>
    <path id="Path_30" data-name="Path 30" d="M744.159,417.955c-33.35-.076-61.964,7.161-95.314,7.085,2.173-14.517,9.766-37.272,11.938-51.792,3.054-20.423.686-32.613,3.733-53.036.3-2,.6-3.992.9-5.991,1.2-8.074-1.68-16.147,3.494-24.673,2.2-3.637,5.87-7.349,11.943-11.182,12.615,1.237,12.4-4.256,25.011-3.018l4.174,8.028c.531,3.048,2.446,5.033,5.041,6.534,5.338,3.116,13.56,4.2,18.5,8.421,6.206,5.3,5.792,13.77,3.947,22.04-.657,2.943-1.493,5.855-2.282,8.594-6.354,22.068,1.768,38.9,8.389,59.374.628,1.941-5.319,9.448-4.69,11.318,1.069,3.169,4.894,7.112,4.285,9.254C742.472,411.563,741.72,414.057,744.159,417.955Z" transform="translate(-406.965 -119.913)" fill="#b002fa"/>
    <path id="Path_31" data-name="Path 31" d="M717.052,319.637l-73.008-.158-2.345-.008-86.581-30.71,11.08.363,5.143-11.446,2.478-5.5,51.029,16.464,23.588.174,44.472.317c.571.008,1.133.023,1.7.045,5.338,3.116,13.56,4.2,18.5,8.421C719.311,302.894,718.9,311.368,717.052,319.637Z" transform="translate(-386.493 -119.179)" fill="#b002fa"/>
    <ellipse id="Ellipse_13" data-name="Ellipse 13" cx="23.725" cy="22.904" rx="23.725" ry="22.904" transform="translate(248.92 107.436)" fill="#ffb6b6"/>
    <path id="Path_32" data-name="Path 32" d="M685.894,250.323l1.933,5.966c4.285-2.042,16.444-4.876,20.012-7.945s6.328-7.3,6.5-11.915c.087-2.381-.51-4.783-.1-7.133.463-2.655,2.16-4.957,2.938-7.542a11.9,11.9,0,0,0-6.723-13.887c-3.933-1.669-8.43-1.2-12.705-1.6s-9.045-2.27-10.248-6.251c-.45-1.488-.4-3.243-1.776-4.218a3.454,3.454,0,0,0-4.463.623q-.1.1-.183.211c-3.619,4.383-10.44,4.708-14.009.288q-.35-.433-.673-.887a7.325,7.325,0,0,0-.308,10.664,5.958,5.958,0,0,1-5.834-4.442c-1.637,2.183-3.318,4.46-3.844,7.107s.451,5.778,2.965,6.949a9.946,9.946,0,0,0,4.039.638c-6.487,7.407-2.595,7.194,10.542.193,6.517.12,3.943,5.965,4.028,12.257h0c3.067-.284,6.226-.563,9.126.684a6.941,6.941,0,0,1,3.255,2.7c1.917,3.178.015,6.482-1.67,9.373-1.441,2.471-2.806,5.447-1.611,8.037" transform="translate(-416.461 -100.295)" fill="#2f2e41"/>
    <path id="Path_33" data-name="Path 33" d="M635.024,502.507a9.138,9.138,0,0,0,4.681-6.158,8.868,8.868,0,0,0-1.823-7.433l22.633-39.779-9.858-8.749-26.524,47.436a8.868,8.868,0,0,0-1.309,12.011,9.632,9.632,0,0,0,12.2,2.671Z" transform="translate(-413.794 -160.469)" fill="#ffb6b6"/>
    <path id="Path_34" data-name="Path 34" d="M693.394,276.177l-5.276,91.239L662.7,424.753l-16.543,21.179,1.88-9.6-11.4-5.508-1.071-.513L650.743,393.2l4.58-11.2,2.134-33.705,2.016-31.872a39.286,39.286,0,0,1,15.116-28.393l12.662-9.93Z" transform="translate(-414.215 -120.161)" fill="#b002fa"/>
    <path id="Path_35" data-name="Path 35" d="M481.538,259.577c-4.028-16.333-3.356-32.419,3.541-48.18a3.782,3.782,0,0,1,4.08-3.417l37.691,2.582a3.737,3.737,0,0,1,3.54,3.939l-3.541,48.18a3.782,3.782,0,0,1-4.08,3.417l-37.691-2.582a3.737,3.737,0,0,1-3.54-3.939Z" transform="translate(-395.007 -103.419)" fill="#f2f2f2"/>
    <path id="Path_36" data-name="Path 36" d="M486.849,246.221c-3.224-8.048-1.163-19.118,2.277-30.975a3.542,3.542,0,0,1,3.821-3.2l32.392,2.219a3.5,3.5,0,0,1,3.315,3.689L525.5,260.828a3.542,3.542,0,0,1-3.822,3.2l-20.066-1.375A15.589,15.589,0,0,1,486.849,246.221Z" transform="translate(-396.039 -104.417)" fill="#fff"/>
    <path id="Path_37" data-name="Path 37" d="M510.711,228.661a5.829,5.829,0,0,0-7.39,4.709c-.427,3.725,3.724,6.666,7.317,5.654a1.135,1.135,0,0,0-.623-2.183c-2.634.742-5.444-2-3.929-4.458a3.5,3.5,0,0,1,3.538-1.671,3.875,3.875,0,0,1,2.614,2.29c1.292,2.812-.244,5.666-2.279,7.71-1.161,1.165-2.523,2.071-3.775,3.134a5.226,5.226,0,0,0-2.146,3.738,4.523,4.523,0,0,0,2.667,3.91c2,.992,4.273.677,6.4.347,1.486-.231.855-2.412-.623-2.183-1.86.289-4.645.727-5.823-1.146-1.009-1.6,1.07-3.011,2.2-3.864,2.848-2.144,5.727-4.912,6.155-8.556C515.366,233.1,513.794,229.693,510.711,228.661Z" transform="translate(-399.406 -108.432)" fill="#b002fa"/>
    <path id="Path_38" data-name="Path 38" d="M762.528,792.783a1.779,1.779,0,0,0,1.718-1.05,1.671,1.671,0,0,0-.432-1.918l-.122-.466.048-.112a4.831,4.831,0,0,1,8.786.032c1.437,3.341,3.267,6.688,3.717,10.221a13.143,13.143,0,0,1-.247,4.678,52.957,52.957,0,0,0,5.139-22.652,50.85,50.85,0,0,0-.338-5.873q-.28-2.4-.778-4.761A54.346,54.346,0,0,0,768.687,747.5a14.927,14.927,0,0,1-6.325-6.336,10.93,10.93,0,0,1-1.055-3.061c.308.039,1.161-4.489.929-4.766.429-.629,1.2-.941,1.666-1.555,2.331-3.051,5.542-2.518,7.219,1.628,3.581,1.745,3.616,4.639,1.419,7.422-1.4,1.771-1.59,4.167-2.817,6.063.126.156.257.307.384.463a55.294,55.294,0,0,1,6,9.182,22.346,22.346,0,0,1,1.428-10.722c1.366-3.182,3.927-5.862,6.183-8.613a5.009,5.009,0,0,1,5.175-1.655,4.793,4.793,0,0,1,3.566,3.982l.013.122q-.5.274-.984.581a2.287,2.287,0,0,0-1.012,2.434,2.373,2.373,0,0,0,1.982,1.793l.049.007a22.394,22.394,0,0,1-.631,3.455c2.893,10.8-3.353,14.736-12.272,14.913-.2.1-.389.195-.586.288a54.989,54.989,0,0,1,3.16,14.357,51.9,51.9,0,0,1-.04,8.68l.015-.1a14.116,14.116,0,0,1,5.023-8.2c3.865-3.065,9.327-4.194,13.5-6.658a2.845,2.845,0,0,1,2.972-.007,2.633,2.633,0,0,1,1.257,2.6l-.017.108a16.438,16.438,0,0,0-1.812.843q-.5.274-.984.581a2.287,2.287,0,0,0-1.012,2.434,2.373,2.373,0,0,0,1.982,1.793l.049.007.1.015a23.045,23.045,0,0,1-4.407,6.662c-1.809,9.43-9.579,10.324-17.891,7.578h-.005a55.343,55.343,0,0,1-3.943,11.112H762.881c-.05-.151-.1-.307-.141-.458a16.561,16.561,0,0,0,3.9-.224c-1.045-1.238-2.09-2.486-3.135-3.723a.847.847,0,0,1-.066-.073c-.53-.633-1.065-1.262-1.6-1.9h0a21.885,21.885,0,0,1,.687-5.764Z" transform="translate(-431.528 -231.517)" fill="#b002fa"/>
    <path id="Path_39" data-name="Path 39" d="M561.319,829.111a.88.88,0,0,0,.272.636.945.945,0,0,0,.659.262H760.216a.9.9,0,1,0,0-1.8H562.249a.945.945,0,0,0-.659.262.88.88,0,0,0-.272.636Z" transform="translate(-387.847 -255.665)" fill="#ccc"/>
    <path id="Path_40" data-name="Path 40" d="M433.712,171.586c-.978,13.954-.508,29.791,10.712,40.143a25.845,25.845,0,0,0,9.209,5.51c1.426.485,2.039-1.7.623-2.183a25.469,25.469,0,0,1-13.32-11.312c-3.542-5.908-4.893-12.724-5.189-19.479a111.567,111.567,0,0,1,.309-12.679C436.159,170.132,433.814,170.138,433.712,171.586Z" transform="translate(-393.902 -94.221)" fill="#fff"/>
    <path id="Path_41" data-name="Path 41" d="M455.68,213.586c2.781,1.247,5.7,2.516,7.9,4.637,2.007,1.935,3.408,4.757,2.6,7.514-1.334,4.524-7.275,6.23-11.418,7.309a1.127,1.127,0,0,0-.78,1.382,1.178,1.178,0,0,0,1.4.8c4.167-1.085,8.839-2.6,11.561-6.044,3.221-4.075,1.692-9.447-1.926-12.771a29.6,29.6,0,0,0-8.149-4.783c-1.36-.61-2.552,1.341-1.183,1.955Z" transform="translate(-392.575 -104.289)" fill="#fff"/>
  </g>
</svg>
