<svg xmlns="http://www.w3.org/2000/svg" width="429.4" height="536.535" viewBox="0 0 429.4 536.535">
  <g id="Group_21" data-name="Group 21" transform="translate(-815.6 -3754.031)">
    <g id="Group_11" data-name="Group 11" transform="translate(1098.855 4256.662)">
      <ellipse id="Ellipse_16" data-name="Ellipse 16" cx="16.952" cy="16.952" rx="16.952" ry="16.952" fill="#fff"/>
      <path id="Path_69" data-name="Path 69" d="M164.707,629.407a1.732,1.732,0,0,0,1.729-1.731V615.444a1.73,1.73,0,0,0-2.588-1.5l-11.893,6.795a1.731,1.731,0,0,0,.139,3.076l11.893,5.436A1.731,1.731,0,0,0,164.707,629.407Z" transform="translate(-143.704 -603.881)" fill="#b002fa"/>
    </g>
    <g id="Group_12" data-name="Group 12" transform="translate(974.686 4213.837)">
      <path id="Path_70" data-name="Path 70" d="M384.806,609.657a1.749,1.749,0,0,1-1.267-3.031l.12-.476-.048-.114a4.7,4.7,0,0,0-8.662.032c-1.417,3.412-3.22,6.83-3.665,10.438a13.89,13.89,0,0,0,.244,4.778,55.7,55.7,0,0,1-5.066-23.132,53.764,53.764,0,0,1,.333-6q.276-2.449.767-4.862a56.342,56.342,0,0,1,11.173-23.879,14.993,14.993,0,0,0,6.236-6.47,11.438,11.438,0,0,0,1.04-3.125c-.3.04-1.145-4.584-.916-4.867-.423-.642-1.18-.961-1.642-1.588-2.3-3.116-5.464-2.572-7.117,1.662-3.531,1.782-3.565,4.737-1.4,7.58,1.378,1.808,1.568,4.255,2.777,6.191-.124.159-.254.313-.378.473a56.7,56.7,0,0,0-5.919,9.376,23.573,23.573,0,0,0-1.407-10.949c-1.347-3.25-3.872-5.987-6.1-8.8a4.838,4.838,0,0,0-8.618,2.376c0,.041-.009.083-.013.124q.5.279.97.593a2.372,2.372,0,0,1-.956,4.316l-.048.007a23.6,23.6,0,0,0,.622,3.529c-2.852,11.031,3.306,15.049,12.1,15.229.194.1.383.2.577.294a57.881,57.881,0,0,0-3.116,14.662,54.891,54.891,0,0,0,.04,8.864l-.015-.1a14.507,14.507,0,0,0-4.952-8.376c-3.811-3.13-9.195-4.283-13.306-6.8a2.722,2.722,0,0,0-4.17,2.648l.017.11a15.924,15.924,0,0,1,1.787.861q.5.28.97.593a2.372,2.372,0,0,1-.956,4.316l-.048.007-.1.015a23.62,23.62,0,0,0,4.345,6.8c1.784,9.63,9.444,10.543,17.638,7.739h.005a57.865,57.865,0,0,0,3.887,11.347h13.885c.05-.154.095-.314.139-.468a15.777,15.777,0,0,1-3.842-.229c1.03-1.264,2.06-2.538,3.091-3.8a.852.852,0,0,0,.065-.075c.523-.647,1.05-1.289,1.573-1.936h0a23.11,23.11,0,0,0-.677-5.887h0Z" transform="translate(-335.993 -545.375)" fill="#f2f2f2"/>
    </g>
    <g id="Group_13" data-name="Group 13" transform="translate(815.6 4086.029)">
      <path id="Path_72" data-name="Path 72" d="M167.891,398.6H437.583a4.623,4.623,0,0,1,0,9.247H167.891a4.623,4.623,0,0,1,0-9.247Z" transform="translate(-163.268 -398.6)" fill="#e6e6e6"/>
      <path id="Path_73" data-name="Path 73" d="M163.268,398.6v9.247H341.65a4.623,4.623,0,0,0,0-9.247Z" transform="translate(-67.335 -398.6)"/>
    </g>
    <path id="Path_75" data-name="Path 75" d="M388.377,0a17.867,17.867,0,0,1,17.867,17.867V268.514h-1.575V124.162A122.587,122.587,0,0,0,282.082,1.575L170.318,0h218.06Z" transform="translate(802.626 3754.031)" fill="#fff"/>
    <ellipse id="Ellipse_17" data-name="Ellipse 17" cx="6.659" cy="6.807" rx="6.659" ry="6.807" transform="translate(1134.16 3801.883)"/>
    <ellipse id="Ellipse_18" data-name="Ellipse 18" cx="6.659" cy="6.807" rx="6.659" ry="6.807" transform="translate(1109.707 3801.883)"/>
    <ellipse id="Ellipse_19" data-name="Ellipse 19" cx="6.659" cy="6.807" rx="6.659" ry="6.807" transform="translate(1085.254 3801.883)"/>
    <g id="Group_14" data-name="Group 14" transform="translate(1160.577 4249.478)">
      <path id="Path_76" data-name="Path 76" d="M81.85,626.877H72.712l-4.347-35.247H81.852Z" transform="translate(-50.108 -591.629)" fill="#ffb6b6"/>
      <path id="Path_77" data-name="Path 77" d="M66.058,634.034h0a7.845,7.845,0,0,0-.435,2.583h0a3.1,3.1,0,0,0,3.1,3.1h28.3A2.116,2.116,0,0,0,99.14,637.6v-1.178s1.4-3.541-1.482-7.906c0,0-3.582,3.417-8.935-1.935l-1.578-2.859L75.719,632.08l-6.333.78c-1.386.171-2.614-.026-3.327,1.174h0Z" transform="translate(-65.624 -598.993)" fill="#2f2e41"/>
    </g>
    <g id="Group_15" data-name="Group 15" transform="translate(1096.588 4220.489)">
      <path id="Path_78" data-name="Path 78" d="M164.549,588.368,155.64,590.4l-12.1-33.391,13.148-3.006Z" transform="translate(-133.916 -554.008)" fill="#ffb6b6"/>
      <path id="Path_79" data-name="Path 79" d="M140.324,603h0a7.846,7.846,0,0,0,.152,2.615h0a3.1,3.1,0,0,0,3.715,2.332l27.587-6.309a2.116,2.116,0,0,0,1.591-2.534l-.263-1.148s.575-3.764-3.208-7.376c0,0-2.73,4.13-9.142.106l-2.176-2.436-9.275,10.694-6,2.172c-1.313.475-2.554.557-2.981,1.886h0Z" transform="translate(-140.258 -561.865)" fill="#2f2e41"/>
    </g>
    <path id="Path_80" data-name="Path 80" d="M151.936,382.921l10.678,15.767L148.854,570.466H131.162l-3.113-83.815-8.476-63.9L75.652,472.545,84.9,535.613l-17.723,7.469-20.034-80.5,33.9-60.579,4.623-15.767Z" transform="translate(1046.061 3692.336)"/>
    <path id="Path_81" data-name="Path 81" d="M77.051,217.921H99.142l7.19,10.235,25.428,12.793-3.853,104.9,8.476,29s-40.068,21.322-77.055-12.793l.771-30.7L47,242.655l23.116-16.2,6.935-8.529Z" transform="translate(1072.401 3715.4)" fill="#fff"/>
    <g id="Group_16" data-name="Group 16" transform="translate(1192.275 3960.916)">
      <path id="Path_82" data-name="Path 82" d="M39.178,387.831a13.52,13.52,0,0,0-3.139-5.559l-5.061-21.994-10.4,2.714,6.253,22.018a13.519,13.519,0,0,0,.411,6.371c1.541,5.177,5.46,8.579,8.755,7.6s4.716-5.972,3.176-11.149h0Z" transform="translate(-2.936 -269.49)" fill="#ffb6b6"/>
      <path id="Path_83" data-name="Path 83" d="M25.3,246.179l6.778-3.724a12.2,12.2,0,0,1,9.534,6.967c3.021,6.487,3.021,53.192,3.021,53.192l13.9,53.841-12.083,7.136L30.021,313.643,25.3,246.179Z" transform="translate(-25.302 -250.771)" fill="#fff"/>
    </g>
    <g id="Group_17" data-name="Group 17" transform="translate(1097.703 3956.6)">
      <path id="Path_84" data-name="Path 84" d="M175,394.689a13.519,13.519,0,0,0-1.3-6.25l1.867-22.491-10.728-.575-.739,22.877a13.519,13.519,0,0,0-1.545,6.194c-.107,5.4,2.593,9.833,6.029,9.9s6.309-4.255,6.416-9.655Z" transform="translate(-160.79 -265.999)" fill="#ffb6b6"/>
      <path id="Path_85" data-name="Path 85" d="M161.145,246.8l8.964-1.32s7.243,2.557,8.485,9.648-14.544,51.122-14.544,51.122l-2.4,55.247L145.5,364.323l-1.793-52.4L161.145,246.8Z" transform="translate(-143.708 -245.483)" fill="#fff"/>
    </g>
    <ellipse id="Ellipse_20" data-name="Ellipse 20" cx="21.545" cy="21.545" rx="21.545" ry="21.545" transform="translate(1132.659 3885.418)" fill="#ffb6b6"/>
    <g id="Group_18" data-name="Group 18" transform="translate(851.225 3933.321)">
      <ellipse id="Ellipse_21" data-name="Ellipse 21" cx="9.604" cy="9.401" rx="9.604" ry="9.401" transform="translate(70.6)" fill="#fff"/>
      <path id="Path_86" data-name="Path 86" d="M406.818,229.048H458.51a3.216,3.216,0,0,0,0-6.432H406.818a3.216,3.216,0,0,0,0,6.432Z" transform="translate(-403.602 -216.698)" fill="#e6e6e6"/>
    </g>
    <g id="Group_19" data-name="Group 19" transform="translate(1223.425 4075.257)">
      <path id="Path_92" data-name="Path 92" d="M10.788,0A10.788,10.788,0,1,1,0,10.788,10.788,10.788,0,0,1,10.788,0Z" fill="#3f3d56"/>
      <path id="Path_87" data-name="Path 87" d="M7.485,390.678a1.167,1.167,0,0,1,1.581.415l3.847,7.62a16.709,16.709,0,0,1,3.893-4.221,1.162,1.162,0,0,1,1.581.415,1.186,1.186,0,0,1-.415,1.581,13.914,13.914,0,0,0-4.1,5.293,1.162,1.162,0,0,1-2,0L7.07,392.26a1.184,1.184,0,0,1,.415-1.581Z" transform="translate(-2.308 -386.208)" fill="#b002fa"/>
    </g>
    <path id="Path_88" data-name="Path 88" d="M272.607,230.174H415.849a16.625,16.625,0,0,0,16.606-16.606V143.527a16.625,16.625,0,0,0-16.606-16.606H272.607A16.625,16.625,0,0,0,256,143.527v70.041A16.625,16.625,0,0,0,272.607,230.174ZM415.849,128.462a15.082,15.082,0,0,1,15.065,15.065v70.041a15.082,15.082,0,0,1-15.065,15.065H272.607a15.082,15.082,0,0,1-15.065-15.065V143.527a15.082,15.082,0,0,1,15.065-15.065Z" transform="translate(590.627 3734.708)" fill="#e6e6e6"/>
    <path id="Path_89" data-name="Path 89" d="M80.351,163.407c5.618.447,4.848-2.239,4.848-2.239l-.505-4.573a2.351,2.351,0,0,1,.965-1.739c1.282-.725,2.583.646,3.941.075a30,30,0,0,1,3.779-1.393c1.647-.444,2.447,1.333,4.148,1.465,1.608.125,4.107-1.428,5.674-1.046,1.38.336-.423-1.8,1.261-2.036L109.856,155s2.061,1.8,2.312,0c4.4.708,7.845-2.368,9.3,5.116.922,4.734,5.642,7.316,6.9,11.972,1.791,6.632-1.25,12.377-5.269,16.976-.994,1.137.576,3.126-.148,4.45-.674,1.231-2.194,1.809-2.881,3.033-.587,1.047-1.647-.7-2.327.294-.587.853,1.625,1.3.59,1.309a15.015,15.015,0,0,1-2.312,0c-1.876.121-.4.046-1.972.143-.683-3.984,1.987-5.132,3.381-8.926a28.967,28.967,0,0,0,1.328-3.818,5.334,5.334,0,0,0-.468-3.919,4.345,4.345,0,0,0-5.473-1.376,5.669,5.669,0,0,0-2.924,5.094,14.463,14.463,0,0,1-3.727-4.957l.609-3.044s-.715.585-1.327,1.209a15.169,15.169,0,0,1,.47-10.759c-.788-.623-6.563,1.882-11.472,3v-.38l-3.853.771c-3.808.691-4.839,1.635-3.853-2.312.322-1.289-1.541,4.623-4.623,3.082-1.931-.966.375-2.808-.883-4.563a5.555,5.555,0,0,1-.882-3.986Z" transform="translate(1049.953 3729.425)" fill="#2f2e41"/>
    <rect id="Rectangle_13" data-name="Rectangle 13" width="150.319" height="0.771" transform="translate(916.677 4029.002)" fill="#3f3d56"/>
    <g id="Group_20" data-name="Group 20" transform="translate(959.512 3946.757)">
      <path id="Path_90" data-name="Path 90" d="M330.892,265.286l6.342-3c-2.6,3.63-4.842,9.3-6.042,13.81-2.032-4.2-5.307-9.344-8.548-12.415l6.7,1.724c-4.13-20.241-19.664-34.771-37.452-34.771v-1.541c18.58,0,34.782,15.139,39,36.2Z" transform="translate(-291.893 -229.089)"/>
      <path id="Path_91" data-name="Path 91" d="M285.084,314.253h40.068a3.082,3.082,0,1,0,0-6.164H285.084a3.082,3.082,0,0,0,0,6.164Z" transform="translate(-275.273 -247.216)" fill="#fff"/>
    </g>
  </g>
</svg>
