<svg xmlns="http://www.w3.org/2000/svg" width="324.284" height="453.59" viewBox="0 0 324.284 453.59">
  <g id="Group_60" data-name="Group 60" transform="translate(-69.614 -2842.5)">
    <path id="Path_42" data-name="Path 42" d="M526.5,228.214c-7.3,12.572,6.444,33.756-7.406,38.155l1.141-1.141c8.36-10.283-9.113-32.048-.753-42.331a25.125,25.125,0,0,0,3.322-4.937" transform="translate(-299.801 2658.127)" fill="#2f2e41"/>
    <path id="Path_43" data-name="Path 43" d="M603,438.788a8.76,8.76,0,0,0-8.506-10.4l-18.039-52.41-9.985,12.727,19.073,48.971A8.807,8.807,0,0,0,603,438.788Z" transform="translate(-307.956 2631.998)" fill="#ffb8b8"/>
    <path id="Path_44" data-name="Path 44" d="M515.231,297.353s-.561-18.972,16.4-8.1,53.9,112.676,53.9,112.676l-18.382,9.945L525.427,318.7Z" transform="translate(-299.483 2646.895)" fill="#fff"/>
    <path id="Path_45" data-name="Path 45" d="M328.791,505.014l-8.472,3.62-17.995-30.953,12.5-5.343Z" transform="translate(-62.991 2764.396)" fill="#ffb6b6"/>
    <path id="Path_46" data-name="Path 46" d="M581.822,700.59l-6.075,2.6-3.535-5.272-.326,6.923-16.113,6.885a3.939,3.939,0,0,1-4.88-5.723l9.07-14.385-2.478-5.8,13.879-4.976Z" transform="translate(-305.279 2581.588)" fill="#2f2e41"/>
    <path id="Path_47" data-name="Path 47" d="M172.577,516.9l-9.2-.45-2.645-35.705,13.581.664Z" transform="translate(-39.578 2763.006)" fill="#ffb6b6"/>
    <path id="Path_48" data-name="Path 48" d="M414.627,716.43l-6.6-.323-.873-6.288-3.321,6.083-17.5-.855a3.939,3.939,0,0,1-1.885-7.281L398.9,698.8l.308-6.3,14.658,1.6Z" transform="translate(-277.549 2579.66)" fill="#2f2e41"/>
    <path id="Path_49" data-name="Path 49" d="M740.332,673.729a2.975,2.975,0,0,0,2.107-5.176l-.212-.808a7.992,7.992,0,0,1,14.814-.281c3.6,8.218,8.247,16.716,6.065,25.826,14.685-31.906,9.212-71.369-13.2-98.321-6.154-3.314-11.174-9.259-12.532-16.2,3.04,1,6.794-1.5,4.486-4.673-1-1.21-2.008-2.411-3.007-3.622,11.393-12.367,25.29,6.767,12.779,23.432a95.375,95.375,0,0,1,10.87,16.652,40.1,40.1,0,0,1,2.217-18.647c2.239-5.549,6.489-10.246,10.226-15.06,4.543-5.866,14.033-3.27,14.722,4.113-4.231,1.435-4.724,7.571.139,8.363A41.053,41.053,0,0,1,767.5,621.945a95.743,95.743,0,0,1,5.613,39.967c2.032-15.867,19.006-19.875,30.835-26.286a4.631,4.631,0,0,1,7.108,4.624,26.754,26.754,0,0,0-4.665,2.518,4.043,4.043,0,0,0,1.948,7.362c-5.852,14.889-21.251,25-37.166,25.093a98.427,98.427,0,0,1-6.428,19.365l-23.619.225c-.087-.262-.166-.532-.245-.794a26.832,26.832,0,0,0,6.532-.452c-5.849-6.793-10.356-10.245-7.08-19.837Z" transform="translate(-417.216 2600.491)" fill="#f2f2f2"/>
    <path id="Path_50" data-name="Path 50" d="M435.895,421.971s-18.712,50.995-19.014,56.7-5.639,77.87-10.114,82.063-18.158,69.2-7.512,74.284,44.236-3.339,44.236-3.339l11.685-76.787,3.97-58.829s12.085,138.531,34,138.124,48.627-8.754,48.627-8.754l-30.679-83.9s.434-99.322-6.677-119.354S435.895,421.971,435.895,421.971Z" transform="translate(-279.651 2625.839)" fill="#27262c"/>
    <path id="Path_51" data-name="Path 51" d="M498.451,266.293l-25.06,2.3-4.037,12.393s-20.972,11.517-16.328,16.75-1.038,40.494-1.038,40.494l1.283,28.622s-1.379,19.83-5.5,24.4-14.919,15.773-7.293,10.413c26.741-18.794,73.481-2.936,73.481-2.936l-6.677-40.9s15.166-66.959,9.181-72.614-11.632-6.37-11.632-6.37Z" transform="translate(-286.682 2650.135)" fill="#fff"/>
    <path id="Path_52" data-name="Path 52" d="M350.623,411.372a8.76,8.76,0,0,0,6.593-11.7l42.266-35.858L384,359.136l-38.686,35.571a8.807,8.807,0,0,0,5.314,16.665Z" transform="translate(-270.532 2634.783)" fill="#ffb8b8"/>
    <path id="Path_53" data-name="Path 53" d="M460.078,306.476s8.328-17.056-11.609-14.142S352.932,372.8,352.932,372.8l12.652,16.635,76.407-67.7Z" transform="translate(-272.646 2645.885)" fill="#6c63ff"/>
    <path id="Path_54" data-name="Path 54" d="M426.4,274.043,347.354,375.307a8.414,8.414,0,0,0,1.453,11.791c18.356,44.569,73.271,77.619,137.872,107.617a8.408,8.408,0,0,0,11.791-1.453L577.512,392a8.408,8.408,0,0,0-1.453-11.791C521.847,349.6,475.252,314.13,438.187,272.59a8.414,8.414,0,0,0-11.791,1.453Z" transform="translate(-271.431 2649.387)" fill="#e6e6e6"/>
    <path id="Path_55" data-name="Path 55" d="M573.352,390.924l-24.06,30.824a90.069,90.069,0,0,1-126.051,15.534l-67.426-52.631a4.785,4.785,0,0,1-.833-6.708l76.379-97.852a4.785,4.785,0,0,1,6.71-.82c34.108,44.044,79.764,78.318,134.455,104.95a4.781,4.781,0,0,1,.826,6.7Z" transform="translate(-272.819 2648.156)" fill="#fff"/>
    <path id="Path_56" data-name="Path 56" d="M436.512,340.1l-15.669,20.074a2.547,2.547,0,1,1-4.015-3.134L432.5,336.966a2.547,2.547,0,0,1,4.015,3.134Z" transform="translate(-283.122 2638.611)" fill="#ccc"/>
    <path id="Path_57" data-name="Path 57" d="M468.012,322.259,433.6,366.343a2.547,2.547,0,0,1-4.015-3.134L464,319.125a2.547,2.547,0,1,1,4.015,3.134Z" transform="translate(-285.232 2641.561)" fill="#ccc"/>
    <circle id="Ellipse_14" data-name="Ellipse 14" cx="16.773" cy="16.773" r="16.773" transform="translate(107.318 3003.807)" fill="#b002fa"/>
    <path id="Path_58" data-name="Path 58" d="M468.677,364.045,426.414,418.19a2.563,2.563,0,0,1-4.015-3.134l42.263-54.145a2.563,2.563,0,0,1,4.015,3.134Z" transform="translate(-284.07 2634.616)" fill="#ccc"/>
    <path id="Path_59" data-name="Path 59" d="M498.212,349.234l-58.989,75.573a2.563,2.563,0,0,1-4.015-3.134L494.2,346.1a2.563,2.563,0,0,1,4.015,3.134Z" transform="translate(-286.189 2637.065)" fill="#ccc"/>
    <path id="Path_60" data-name="Path 60" d="M501.28,389.494l-42.263,54.145A2.563,2.563,0,0,1,455,440.5l42.263-54.145a2.563,2.563,0,0,1,4.015,3.134Z" transform="translate(-289.462 2630.408)" fill="#ccc"/>
    <path id="Path_61" data-name="Path 61" d="M568.28,397.494l-42.263,54.145A2.563,2.563,0,0,1,522,448.5l42.263-54.145a2.563,2.563,0,0,1,4.015,3.134Z" transform="translate(-300.54 2629.085)" fill="#b002fa"/>
    <path id="Path_62" data-name="Path 62" d="M530.815,374.683l-58.989,75.573a2.563,2.563,0,0,1-4.015-3.134L526.8,371.549a2.563,2.563,0,0,1,4.015,3.134Z" transform="translate(-291.58 2632.857)" fill="#ccc"/>
    <path id="Path_63" data-name="Path 63" d="M460.126,223.031a24.892,24.892,0,1,0,42.814-17.265l-.119-.119c-.2-.209-.4-.418-.607-.617a.01.01,0,0,1-.01-.01c-.259-.239-.518-.478-.787-.707a24.885,24.885,0,0,0-41.29,18.719Z" transform="translate(-290.371 2661.405)" fill="#2f2e41"/>
    <circle id="Ellipse_15" data-name="Ellipse 15" cx="20.873" cy="20.873" r="20.873" transform="translate(179.907 2869.322)" fill="#ffb8b8"/>
    <path id="Path_64" data-name="Path 64" d="M470.51,235.19c-2.04-9.194.909-19.495,7.338-25.633a23.536,23.536,0,0,1,24.579-4.764c.525.212,1.05.444,1.565.686l.24.113v.035c.046.032.093.066.139.1a.8.8,0,0,0,.345.19,12.868,12.868,0,0,1,9.71,4.048c3.235,3.51,4.758,9.183,4.291,15.973l-.015.212-.181.113a71.331,71.331,0,0,1-7.61,4.2c-9.163,4.309-17.528,5.107-25.568,2.438l-.148-.049-3.374-5.655c-.693,3.9-.323,16.839-4.3,17.54L470.6,235.58Z" transform="translate(-291.983 2660.567)" fill="#2f2e41"/>
    <path id="Path_65" data-name="Path 65" d="M412.979,249.15c7.1-3.666-2.032-16.972-.2-24.752s15.055-10.282,15.9-18.23,2.823-16.147,8.068-22.179c3.352-3.854,8.29-6.7,13.375-6.217a12.026,12.026,0,0,1,10.54,14.85,3.7,3.7,0,0,1,6.122.727c.825,2.074-1,4.587-3.14,4.77-2.8,3.464-6.017,7.14-10.411,7.839a4.741,4.741,0,0,1-4.04-.933c-1.034-.993-1.114-2.978.112-3.719-5.522,2.194-8.76,8.164-9.579,14.049s.314,11.84,1.061,17.734,1.069,12.1-1.242,17.57c-2.731,6.468-9.018,11.1-15.879,12.59s-14.169.034-20.379-3.24a48.181,48.181,0,0,1-15.621-13.873C394.953,251.311,405.037,253.249,412.979,249.15Z" transform="translate(-278.39 2664.781)" fill="#2f2e41"/>
    <path id="Path_66" data-name="Path 66" d="M483.5,231.214c-7.3,12.572,6.444,33.756-7.406,38.155l1.141-1.141c8.36-10.283-9.113-32.048-.753-42.331a25.123,25.123,0,0,0,3.322-4.937" transform="translate(-292.69 2657.631)" fill="#2f2e41"/>
    <path id="Path_67" data-name="Path 67" d="M471.8,235.358a42.457,42.457,0,0,1,32.688-28.406c.03-.01.129-.05.259-.109.08-.05.179-.1.279-.149-.3-.169-.587-.319-.886-.468a.01.01,0,0,1-.01-.01c-.259-.239-.518-.478-.787-.707l-.757.03S476,201.327,471.8,235.358Z" transform="translate(-292.302 2660.208)" fill="#b002fa"/>
  </g>
</svg>
