<svg xmlns="http://www.w3.org/2000/svg" width="1706" height="849" viewBox="0 0 1706 849">
  <g id="Group_77" data-name="Group 77" transform="translate(-5837 -2521.5)">
    <g id="Group_77-2" data-name="Group 77" transform="translate(5837 2521.5)">
      <rect id="Rectangle_117" data-name="Rectangle 117" width="1705.3" height="847.5" transform="translate(0.7 0.5)" fill="#fff"/>
      <path id="Path_251" data-name="Path 251" d="M1532.6,4183.878s-83.7,63.455-157.7,89.322-102.6,93.4-102.6,93.4V4183.878Z" transform="translate(-1272.3 -4183.878)" fill="#1622fa"/>
      <path id="Path_252" data-name="Path 252" d="M1272.3,4183.878s83.7,63.455,157.7,89.322,102.6,93.4,102.6,93.4V4183.878Z" transform="translate(173 -4183.878)" fill="#1622fa"/>
    </g>
    <path id="Path_253" data-name="Path 253" d="M1587.751,2238.4s-68.1-88.862,22.406-128.2c41.7-18.126,99.508-33.073,188.32,0,282.747,37.4,289.949-11.8,373.44-13.2s245.67-11,375.307-26.8,202.724,50.8,353.967,40,224.331-24,304.087-24,57.616,129.4,57.616,129.4Z" transform="translate(4275 1080.5)" fill="rgba(81,90,242,0.4)"/>
    <rect id="Rectangle_118" data-name="Rectangle 118" width="1706" height="96" transform="translate(5837 3274.5)" fill="#1622fa"/>
  </g>
</svg>
