<svg xmlns="http://www.w3.org/2000/svg" width="1706.909" height="1700" viewBox="0 0 1706.909 1700">
  <g id="Group_80" data-name="Group 80" transform="translate(2727 -3902.5)">
    <rect id="Rectangle_142" data-name="Rectangle 142" width="1706.909" height="1053" transform="translate(-2727 4549.5)" fill="#fff"/>
    <g id="Group_80-2" data-name="Group 80" transform="translate(-2727 3902.5)">
      <path id="Path_265" data-name="Path 265" d="M0,0H1706.909V714.325s-410.725,41.518-837.452,41.518S0,714.325,0,714.325Z" transform="translate(0 0.475)" fill="#fa1119"/>
      <path id="Path_267" data-name="Path 267" d="M-627.108,2151.573c-119.142-69.06-111.837-102.815-181.714-136.042-107.036-50.9-499.645,90.071-655.392,91.63-7.528.075-34.359-26.928-47.687-55,12.716-52.534,8.153-86.216,29.223-96.437,7.842-3.807,29.5.708,43.17,1.872,83.6,43.992,251.273,237.573,359.443,193.981,182.728-73.639,359.464-350.487,339.784-534.723-35.333-330.763,113.173,91.886,113.173,91.886Z" transform="translate(2334.016 -1471.943)" fill="rgba(255,143,147,0.6)"/>
      <path id="Path_264" data-name="Path 264" d="M1272.3,4183.878s101.882,60.316,191.957,84.9,124.888,88.779,124.888,88.779V4183.878Z" transform="translate(117.764 -4183.878)" fill="#fff"/>
      <path id="Path_268" data-name="Path 268" d="M-1381.2,2139.646c119.609-68.008,110.423-101.248,180.574-133.969,107.455-50.12,483.451,96.868,639.809,98.4,50.9.5-3.456-34.352-6.652-57.056-2.2-15.624,29.055-113.4,0-98.4-83.923,43.322-252.257,233.953-360.851,191.025-183.444-72.517-352.087-332.077-332.329-513.505,35.472-325.723-120.55,70.378-120.55,70.378Z" transform="translate(1383.6 -1472.3)" fill="rgba(255,143,147,0.6)"/>
      <path id="Path_263" data-name="Path 263" d="M1592.381,4183.878s-102.923,60.646-193.917,85.367-126.163,89.265-126.163,89.265V4183.878Z" transform="translate(-1271.9 -4183.403)" fill="#fff"/>
    </g>
  </g>
</svg>
