<svg xmlns="http://www.w3.org/2000/svg" width="1706" height="850" viewBox="0 0 1706 850">
  <g id="Group_79" data-name="Group 79" transform="translate(3145 -749.786)">
    <g id="Group_79-2" data-name="Group 79" transform="translate(-3145 752)">
      <rect id="Rectangle_141" data-name="Rectangle 141" width="1706" height="847.786" fill="#fff"/>
      <path id="Path_255" data-name="Path 255" d="M226.2,596.514-796.888,1444.3H669.092V596.514Z" transform="translate(1036.908 -596.514)" fill="#b002fa"/>
    </g>
    <path id="Path_256" data-name="Path 256" d="M30.317,43.052l239.437-5.366L239.062,0,0,5.826Z" transform="translate(-2521.494 1570.347) rotate(-48)" fill="#fff"/>
    <path id="Path_257" data-name="Path 257" d="M29.558,39.311H183.107L154.093,0H0Z" transform="translate(-2590.914 1573.482) rotate(-48)" fill="#fff"/>
    <path id="Path_260" data-name="Path 260" d="M17.8,0,170.455,2.882,143.446,40.342H0Z" transform="matrix(0.588, -0.809, 0.809, 0.588, -1638.237, 887.687)" fill="#fff"/>
    <path id="Path_261" data-name="Path 261" d="M8.028,0,140.841,1.392,118.525,38.546H0Z" transform="matrix(0.588, -0.809, 0.809, 0.588, -1557.784, 868.943)" fill="#fff"/>
  </g>
</svg>
