<svg xmlns="http://www.w3.org/2000/svg" width="1706" height="2545" viewBox="0 0 1706 2545">
  <g id="Group_73" data-name="Group 73" transform="translate(-4287.979 -2656)">
    <rect id="Rectangle_7" data-name="Rectangle 7" width="1705.979" height="973" transform="translate(4288 2656)" fill="#fa1119"/>
    <rect id="Rectangle_8" data-name="Rectangle 8" width="1703.58" height="1014.903" transform="translate(4288 3628.691)" fill="#fa1119"/>
    <path id="Path_9" data-name="Path 9" d="M1883.555,1897.333s-628.928,344.481-798.909,798.447c-43.855,117.124-101.337,271.134-197.8,385.318-279.331,330.636-709.269,577.652-709.269,577.652V4377.53l1705.98-18.615Z" transform="translate(4110.424 823.471)" fill="#fff"/>
    <path id="Path_270" data-name="Path 270" d="M0,0,1687.573,11.411l6,543.314L6,543.314Z" transform="matrix(1, -0.017, 0.017, 1, 4287.979, 4627.482)" fill="#fff"/>
    <path id="Path_68" data-name="Path 68" d="M1803.222,3146.915s-256.011,350.462-526.078,567.82S867.5,3903.9,722.955,3982.782c-316.576,172.765-555.876,278.965-555.876,278.965s218.419,1.769,718.8,0c449.155-1.587,920.581,0,920.581,0Z" transform="translate(4187.521 938.467)" fill="#fa1119"/>
  </g>
</svg>
