<svg xmlns="http://www.w3.org/2000/svg" width="1706" height="1550" viewBox="0 0 1706 1550">
  <g id="Group_83" data-name="Group 83" transform="translate(-10343.315 -543)">
    <g id="Group_72" data-name="Group 72" transform="translate(6827 329)">
      <path id="Path_192" data-name="Path 192" d="M0,0H1705.316V1550H0Z" transform="translate(3517 214)" fill="#b002fa"/>
      <path id="Path_3" data-name="Path 3" d="M1281,2196s-33-590.66-342.964-1036.922C759.7,902.324,241.316,652.224,241.316,652.224V2196H1281Z" transform="translate(3275 -432)"/>
    </g>
    <g id="Group_82" data-name="Group 82" transform="translate(10550 -147)">
      <path id="Path_4" data-name="Path 4" d="M224.8,828.4s342.536,107.236,343.616,410.561" transform="translate(-425 80)" fill="none" stroke="#b002fa" stroke-linecap="round" stroke-width="4"/>
      <line id="Line_6" data-name="Line 6" y1="25" x2="25" transform="translate(143.182 1294.727)" fill="none" stroke="#b002fa" stroke-linecap="round" stroke-width="4"/>
      <line id="Line_7" data-name="Line 7" x1="25" y1="25" transform="translate(118.182 1294.727)" fill="none" stroke="#b002fa" stroke-linecap="round" stroke-width="4"/>
      <path id="Path_5" data-name="Path 5" d="M598.279,828.4S225.974,973.517,224.8,1383.991" transform="translate(895.421 438)" fill="none" stroke="#000" stroke-linecap="round" stroke-width="4"/>
      <line id="Line_8" data-name="Line 8" x1="25" y1="25" transform="translate(1095.454 1797.758)" fill="none" stroke="#000" stroke-linecap="round" stroke-width="4"/>
      <line id="Line_9" data-name="Line 9" y1="25" x2="25" transform="translate(1120.454 1797.758)" fill="none" stroke="#000" stroke-linecap="round" stroke-width="4"/>
    </g>
  </g>
</svg>
